<?xml version="1.0" encoding="UTF-8"?>
<svg id="Layer_1" data-name="Layer 1" xmlns="http://www.w3.org/2000/svg" viewBox="0 0 950 950">
  <defs>
    <style>
      .cls-1 {
        fill: #fff;
      }

      .cls-1, .cls-2 {
        fill-rule: evenodd;
      }

      .cls-2 {
        fill: #541784;
      }
    </style>
  </defs>
  <path class="cls-2" d="m489.38,688.04c51.2-17.51,91.47-20.88,138.82,6.31,130.96,75.2,321.86,4.32,295.72-161.8-14.44-91.77-96.47-161.46-209.48-221.02C-75.89-63.21-237.82,936.76,489.38,688.04h0Z"/>
  <path class="cls-1" d="m707.03,425.07c113.08-8.37,125.9,134.37,48.06,160.37,25.62,5.12,51.67-.69,78.18-18.55l-7.96,52.34c-46.76,12.55-82.09,1.14-110.31-25.18-40.1-.77-68.44-19.74-80.51-49.02-23.43-56.87,10.14-115.34,72.53-119.96h0Zm7.39,40.55c20.43,0,36.99,20.87,36.99,46.62s-16.56,46.62-36.99,46.62-36.99-20.87-36.99-46.62,16.56-46.62,36.99-46.62h0Z"/>
  <path class="cls-1" d="m136.44,426.64l-.25,163.97h98.85c56.51,4.57,72.37-67.63,28.52-87.51,33.04-18,27.53-72.75-20.74-76.48l-106.37.02h0Zm43.3,94.49h45.85c7.15,0,13,7.39,13,16.41h0c0,9.03-5.85,16.42-13,16.42h-45.85v-32.83h0Zm0-56.12h43.42c6.77,0,12.31,5.54,12.31,12.3h0c0,6.77-5.54,12.31-12.31,12.31h-43.42v-24.61h0Z"/>
  <path class="cls-1" d="m449.4,537.19v37.03c-30.11,18.77-66.8,23.37-96.47,15.54-71.69-18.93-70.52-116.75-23.81-150.07,46.96-33.5,126.28-8.02,123.1,80.53h-107.42c7.52,43.8,61.65,47.36,104.59,16.96h0Zm-102.85-48.16h55.17c-4.03-26.79-45.57-37.34-55.17,0h0Z"/>
  <path class="cls-1" d="m463.54,430.58h48.58v20.59c21.17-33.26,77.35-37.68,99.45,5.28,6.75,13.11,5.09,19.68,5.09,33.97v99.08h-46.65v-100.36c-6.76-32.5-29.03-32.23-45.37-17.42-14.66,13.29-12.52,19.17-12.52,37.04v82.03h-47.93l-.65-160.19h0Z"/>
</svg>