<?xml version="1.0" encoding="UTF-8"?>
<svg id="Layer_1" data-name="Layer 1" xmlns="http://www.w3.org/2000/svg" viewBox="0 0 960 960">
  <defs>
    <style>
      .cls-1, .cls-2 {
        stroke-width: 0px;
      }

      .cls-2 {
        fill: #2799ce;
      }
    </style>
  </defs>
  <polygon class="cls-2" points="124.36 448.88 102.19 456.59 69.06 416.88 41.12 400.84 134.63 562.88 134.7 530.62 116.91 482.08 145.16 460.85 124.36 448.88"/>
  <polygon class="cls-2" points="126.43 445.25 122.04 422.26 71.12 413.37 43.25 397.21 230.28 397.21 202.47 413.37 151.55 422.26 147.16 457.34 126.43 445.25"/>
  <polygon class="cls-1" points="204.53 416.88 232.47 400.84 138.96 562.88 138.83 530.62 204.53 416.88"/>
  <path class="cls-1" d="M366.82,444.62h18.16v59.88h61.07l-10.96,10.21h-68.27v-70.09ZM574.08,444.62h91.45l-10.59,10.21h-62.26v18.79h62.63v10.59h-62.63v20.86h64.39l11.4,10.21h-93.95l-.44-70.65ZM717.19,454.83h-31.88l-9.52-10.21h101.09l-9.21,10.21h-31.94v59.88h-18.16l-.38-59.88ZM827.18,454.83h-31.88l-9.46-10.21h100.84l-9.33,10.21h-31.88v59.88h-17.98l-.31-59.88ZM899.52,444.62h18.48v70.09h-18.16l-.31-70.09ZM261.78,444.62h47.85c11.64-.19,23.2,1.94,34.01,6.26v22.8c-2.49,1.67-5.24,2.92-8.14,3.7,3.67,1.07,7.14,2.74,10.27,4.95v25.62c-9.53,5.35-20.41,7.8-31.32,7.08h-53.61v-67.71l18.29,9.58v47.85h31.32c7.28.25,14.54-.75,21.48-2.94v-14.47c-6.96-2.13-14.21-3.13-21.48-2.94h-28v-12.53h28c6.34.2,12.67-.53,18.79-2.19v-12.84c-6.12-1.63-12.46-2.3-18.79-2h-28.44l-20.23-10.21ZM458.01,498.55v-54.37l16.91,5.39v44.97c3.69,4.14,8.64,6.93,14.09,7.95h32.95c5.4-1.05,10.31-3.84,13.97-7.95v-44.91l16.91-5.45v54.24c-7.01,8.91-16.84,15.18-27.87,17.79h-39.15c-10.98-2.52-20.83-8.6-28-17.29"/>
</svg>