<?xml version="1.0" encoding="iso-8859-1"?>
<!-- Generator: Adobe Illustrator 27.0.0, SVG Export Plug-In . SVG Version: 6.00 Build 0)  -->
<svg version="1.1" id="Layer_1" xmlns="http://www.w3.org/2000/svg" xmlns:xlink="http://www.w3.org/1999/xlink" x="0px" y="0px"
	 viewBox="0 0 500 500" style="enable-background:new 0 0 500 500;" xml:space="preserve">
<g id="watermark_1_">
	<g>
		<g id="watermark" style="opacity:0.61;">
			<g>
				<g>
					<g>
						<g>
							<polygon style="fill:#FFFFFF;" points="213.765,461.172 208.204,474.017 205.268,474.017 199.726,461.172 202.938,461.172 
								206.846,470.347 210.81,461.172 							"/>
						</g>
						<g>
							<path style="fill:#FFFFFF;" d="M223.507,469.741h-7.469c0.275,1.23,1.321,1.982,2.826,1.982c1.046,0,1.798-0.312,2.477-0.954
								l1.523,1.651c-0.917,1.046-2.294,1.597-4.074,1.597c-3.413,0-5.634-2.147-5.634-5.083c0-2.954,2.257-5.083,5.267-5.083
								c2.899,0,5.138,1.945,5.138,5.12C223.562,469.191,223.526,469.503,223.507,469.741 M216.002,468.071h4.863
								c-0.202-1.248-1.138-2.055-2.422-2.055C217.139,466.016,216.204,466.805,216.002,468.071"/>
						</g>
						<g>
							<path style="fill:#FFFFFF;" d="M224.735,468.934c0-2.973,2.294-5.083,5.505-5.083c2.074,0,3.707,0.899,4.423,2.514
								l-2.22,1.193c-0.532-0.936-1.321-1.358-2.221-1.358c-1.45,0-2.587,1.009-2.587,2.734c0,1.725,1.138,2.734,2.587,2.734
								c0.899,0,1.688-0.404,2.221-1.358l2.22,1.211c-0.716,1.578-2.349,2.495-4.423,2.495
								C227.029,474.017,224.735,471.907,224.735,468.934"/>
						</g>
						<g>
							<path style="fill:#FFFFFF;" d="M242.828,473.393c-0.587,0.422-1.45,0.624-2.331,0.624c-2.33,0-3.688-1.193-3.688-3.542
								v-4.055h-1.523v-2.202h1.523v-2.404h2.863v2.404h2.459v2.202h-2.459v4.019c0,0.844,0.458,1.303,1.229,1.303
								c0.422,0,0.844-0.128,1.156-0.367L242.828,473.393z"/>
						</g>
					</g>
					<g>
						<path style="fill:#FFFFFF;" d="M262.474,463.997v2.643c-0.238-0.018-0.422-0.037-0.642-0.037
							c-1.578,0-2.624,0.862-2.624,2.753v4.661h-2.863v-9.873h2.734v1.303C259.776,464.493,260.951,463.997,262.474,463.997"/>
					</g>
					<g>
						<path style="fill:#FFFFFF;" d="M263.299,472.53l1.009-2.239c1.083,0.789,2.697,1.339,4.239,1.339
							c1.762,0,2.477-0.587,2.477-1.376c0-2.404-7.469-0.752-7.469-5.524c0-2.184,1.762-4,5.413-4c1.615,0,3.267,0.385,4.459,1.138
							l-0.918,2.257c-1.193-0.679-2.422-1.009-3.56-1.009c-1.761,0-2.44,0.66-2.44,1.468c0,2.367,7.468,0.734,7.468,5.45
							c0,2.147-1.78,3.982-5.45,3.982C266.492,474.017,264.437,473.411,263.299,472.53"/>
					</g>
					<g>
						<path style="fill:#FFFFFF;" d="M285.428,469.741h-7.469c0.275,1.23,1.321,1.982,2.826,1.982c1.046,0,1.798-0.312,2.477-0.954
							l1.523,1.651c-0.918,1.046-2.294,1.597-4.074,1.597c-3.413,0-5.634-2.147-5.634-5.083c0-2.954,2.257-5.083,5.267-5.083
							c2.9,0,5.138,1.945,5.138,5.12C285.484,469.191,285.447,469.503,285.428,469.741 M277.923,468.071h4.863
							c-0.202-1.248-1.138-2.055-2.422-2.055C279.061,466.016,278.125,466.805,277.923,468.071"/>
					</g>
					<g>
						<path style="fill:#FFFFFF;" d="M297.007,469.741h-7.469c0.275,1.23,1.321,1.982,2.826,1.982c1.046,0,1.798-0.312,2.477-0.954
							l1.523,1.651c-0.918,1.046-2.294,1.597-4.074,1.597c-3.413,0-5.634-2.147-5.634-5.083c0-2.954,2.257-5.083,5.267-5.083
							c2.899,0,5.138,1.945,5.138,5.12C297.062,469.191,297.025,469.503,297.007,469.741 M289.501,468.071h4.863
							c-0.202-1.248-1.138-2.055-2.422-2.055C290.639,466.016,289.703,466.805,289.501,468.071"/>
					</g>
					<g>
						<polygon style="fill:#FFFFFF;" points="303.208,470.145 301.831,471.503 301.831,474.017 298.969,474.017 298.969,460.401 
							301.831,460.401 301.831,468.108 306.016,464.144 309.429,464.144 305.318,468.328 309.796,474.017 306.327,474.017 						"/>
					</g>
					<g>
						<path style="fill:#FFFFFF;" d="M256.601,475.359L256.601,475.359l-2.86-2.86c-0.435,0.508-0.953,0.943-1.534,1.284
							c-0.092,0.069-0.186,0.136-0.283,0.199l3.027,3.027c0.456,0.456,1.195,0.456,1.65,0
							C257.057,476.554,257.057,475.815,256.601,475.359"/>
					</g>
					<g>
						<path style="fill:#FFFFFF;" d="M249.984,463.244c0.221-0.173,0.495-0.281,0.797-0.281c0.042,0,0.083,0.002,0.124,0.006
							c-0.214-0.156-0.478-0.249-0.764-0.249c-0.395,0-0.744,0.18-0.981,0.458c-0.051,0-0.1,0.006-0.151,0.008
							c0.039-0.077,0.064-0.162,0.064-0.255c0-0.234-0.143-0.434-0.346-0.519c0.087,0.126,0.138,0.279,0.138,0.445
							c0,0.122-0.031,0.237-0.081,0.341c-2.811,0.201-5.03,2.539-5.03,5.4c0,2.993,2.426,5.42,5.42,5.42
							c2.993,0,5.42-2.426,5.42-5.42C254.595,465.879,252.593,463.635,249.984,463.244 M247.983,464.656
							c0.435,0,0.844,0.112,1.199,0.309c0.374-0.245,0.82-0.387,1.299-0.387c0.711,0,1.348,0.312,1.784,0.806
							c-0.435-0.379-1.004-0.61-1.627-0.61c-0.449,0-0.87,0.12-1.234,0.329c-0.079,0.046-0.156,0.096-0.229,0.15
							c-0.065-0.048-0.133-0.093-0.204-0.134c-0.369-0.219-0.8-0.344-1.26-0.344c-0.3,0-0.588,0.054-0.854,0.152
							C247.196,464.754,247.578,464.656,247.983,464.656 M251.772,469.098c0.115,0.305,0.181,0.634,0.181,0.979
							c0,1.534-1.244,2.777-2.778,2.777c-1.534,0-2.777-1.243-2.777-2.777c0-0.345,0.066-0.674,0.181-0.979
							c-0.62-0.382-1.035-1.064-1.035-1.846c0-1.197,0.971-2.168,2.168-2.168c0.565,0,1.078,0.218,1.463,0.572
							c0.386-0.354,0.899-0.572,1.464-0.572c1.197,0,2.168,0.971,2.168,2.168C252.807,468.034,252.392,468.716,251.772,469.098"/>
					</g>
					<g>
						<path style="fill:#FFFFFF;" d="M251.666,467.061c0,0.497-0.404,0.901-0.901,0.901c-0.497,0-0.901-0.404-0.901-0.901
							s0.404-0.901,0.901-0.901c0.101,0,0.197,0.017,0.287,0.047c-0.03,0.062-0.045,0.132-0.045,0.204
							c0,0.273,0.221,0.494,0.494,0.494c0.05,0,0.099-0.008,0.146-0.022C251.66,466.941,251.666,467,251.666,467.061"/>
					</g>
					<g>
						<path style="fill:#FFFFFF;" d="M248.255,467.061c0,0.376-0.305,0.681-0.681,0.681c-0.376,0-0.681-0.305-0.681-0.681
							s0.305-0.681,0.681-0.681c0.076,0,0.149,0.013,0.217,0.035c-0.023,0.047-0.034,0.1-0.034,0.155
							c0,0.206,0.167,0.374,0.374,0.374c0.038,0,0.075-0.006,0.11-0.017C248.25,466.97,248.255,467.015,248.255,467.061"/>
					</g>
					<g>
						<g>
							<g>
								<rect x="242.908" y="467.83" style="fill:#FFFFFF;" width="0.616" height="0.616"/>
							</g>
							<g>
								<rect x="254.827" y="467.83" style="fill:#FFFFFF;" width="0.616" height="0.616"/>
							</g>
							<g>
								<path style="fill:#FFFFFF;" d="M255.205,468.082h-0.14c0-3.248-2.642-5.89-5.89-5.89c-3.248,0-5.89,2.642-5.89,5.89h-0.14
									c0-1.611,0.627-3.125,1.766-4.264c1.139-1.139,2.653-1.766,4.264-1.766c1.611,0,3.125,0.627,4.264,1.766
									C254.578,464.957,255.205,466.471,255.205,468.082"/>
							</g>
						</g>
						<g>
							<rect x="248.868" y="461.814" style="fill:#FFFFFF;" width="0.616" height="0.616"/>
						</g>
						<g>
							<rect x="244.95" y="462.052" style="fill:#FFFFFF;" width="8.45" height="0.14"/>
						</g>
						<g>
							<path style="fill:#FFFFFF;" d="M245.174,462.15c0,0.108-0.088,0.196-0.196,0.196c-0.108,0-0.196-0.088-0.196-0.196
								c0-0.108,0.088-0.196,0.196-0.196C245.086,461.954,245.174,462.042,245.174,462.15"/>
						</g>
						<g>
							<path style="fill:#FFFFFF;" d="M253.596,462.15c0,0.108-0.088,0.196-0.196,0.196c-0.108,0-0.196-0.088-0.196-0.196
								c0-0.108,0.088-0.196,0.196-0.196C253.509,461.954,253.596,462.042,253.596,462.15"/>
						</g>
					</g>
				</g>
				<g>
					<path style="fill:#FFFFFF;" d="M314.356,473.409c0,1.559-2.364,1.559-2.364,0C311.993,471.851,314.356,471.851,314.356,473.409
						z"/>
				</g>
				<g>
					<g>
						<g>
							<path style="fill:#FFFFFF;" d="M161.739,466.549l1.772,6.088l1.855-6.088h2.215l-2.823,8.14h-2.33l-0.837-2.396l-0.722-2.708
								l-0.722,2.708l-0.837,2.396h-2.33l-2.839-8.14h2.231l1.855,6.088l1.756-6.088H161.739z"/>
						</g>
						<g>
							<path style="fill:#FFFFFF;" d="M176.713,466.549l1.772,6.088l1.855-6.088h2.215l-2.823,8.14h-2.33l-0.837-2.396l-0.722-2.708
								l-0.722,2.708l-0.837,2.396h-2.33l-2.839-8.14h2.231l1.855,6.088l1.756-6.088H176.713z"/>
						</g>
						<g>
							<path style="fill:#FFFFFF;" d="M191.687,466.549l1.772,6.088l1.855-6.088h2.215l-2.823,8.14h-2.33l-0.837-2.396l-0.722-2.708
								l-0.722,2.708l-0.837,2.396h-2.33l-2.839-8.14h2.231l1.855,6.088l1.756-6.088H191.687z"/>
						</g>
					</g>
					<g>
						<path style="fill:#FFFFFF;" d="M200.908,473.52c0,1.559-2.364,1.559-2.364,0C198.545,471.962,200.908,471.962,200.908,473.52z
							"/>
					</g>
					<g>
						<path style="fill:#FFFFFF;" d="M322.71,473.409c-0.935,0.919-1.919,1.28-3.117,1.28c-2.346,0-4.3-1.411-4.3-4.282
							s1.953-4.284,4.3-4.284c1.149,0,2.035,0.329,2.921,1.199l-1.264,1.329c-0.476-0.428-1.066-0.64-1.623-0.64
							c-1.346,0-2.33,0.985-2.33,2.396c0,1.542,1.05,2.362,2.297,2.362c0.64,0,1.28-0.18,1.772-0.672L322.71,473.409z"/>
					</g>
					<g>
						<path style="fill:#FFFFFF;" d="M331.805,470.472c0,2.33-1.591,4.217-4.217,4.217c-2.626,0-4.201-1.887-4.201-4.217
							c0-2.314,1.609-4.217,4.185-4.217C330.149,466.255,331.805,468.158,331.805,470.472z M325.389,470.472
							c0,1.231,0.739,2.38,2.199,2.38c1.46,0,2.199-1.149,2.199-2.38c0-1.215-0.854-2.396-2.199-2.396
							C326.144,468.077,325.389,469.258,325.389,470.472z"/>
					</g>
					<g>
						<path style="fill:#FFFFFF;" d="M338.572,474.689v-4.332c0-1.068-0.559-2.035-1.658-2.035c-1.082,0-1.722,0.967-1.722,2.035
							v4.332h-2.003v-8.107h1.855l0.148,0.985c0.426-0.82,1.362-1.116,2.133-1.116c0.969,0,1.937,0.394,2.396,1.51
							c0.723-1.149,1.658-1.478,2.708-1.478c2.297,0,3.43,1.412,3.43,3.84v4.365h-2.003v-4.365c0-1.066-0.442-1.97-1.526-1.97
							c-1.082,0-1.756,0.935-1.756,2.003v4.332H338.572z"/>
					</g>
				</g>
			</g>
		</g>
		<g style="opacity:0.61;">
			<g>
				<g>
					<path style="fill:#FFFFFF;" d="M345.988,431.299c-0.006-1.224-0.959-2.121-2.189-2.14c-0.924-0.014-0.832,0.12-0.834-0.867
						c-0.003-1.097-0.007-2.194,0.003-3.292c0.003-0.379-0.112-0.691-0.362-0.976c-2.342-2.668-4.678-5.342-7.019-8.011
						c-0.12-0.137-0.275-0.244-0.414-0.366c-6.214,0-12.427,0-18.641,0c-0.794,0.293-1.14,0.868-1.138,1.709
						c0.01,3.748,0.004,7.496,0.004,11.243c0,0.556-0.003,0.589-0.55,0.551c-1.497-0.102-2.516,0.986-2.497,2.492
						c0.044,3.476,0.013,6.953,0.014,10.429c0.001,1.58,0.867,2.443,2.45,2.449c0.582,0.002,0.582,0.002,0.582,0.6
						c0,2.219-0.001,4.438,0.001,6.657c0.001,1.192,0.58,1.771,1.768,1.771c8.013,0.001,16.027,0.001,24.04,0
						c1.168,0,1.755-0.583,1.757-1.745c0.002-2.256,0-4.512,0.001-6.768c0-0.512,0.002-0.511,0.52-0.515
						c0.271-0.002,0.541,0.008,0.809-0.058c0.996-0.246,1.69-1.044,1.694-2.069C346.003,438.696,346.005,434.997,345.988,431.299z
						 M317.537,417.162c5.337,0,10.674,0,16.01,0c0.548,0,0.554,0.007,0.554,0.561c0.001,2.243-0.001,4.486,0.001,6.73
						c0.001,0.811,0.249,1.059,1.06,1.059c1.91,0.001,3.821,0,5.731,0.001c0.458,0,0.479,0.021,0.481,0.483
						c0.003,0.887,0.002,1.775,0,2.662c-0.001,0.477-0.024,0.498-0.504,0.499c-3.895,0.001-7.79,0-11.684,0
						c-3.882,0-7.765,0-11.647,0c-0.55,0-0.552-0.001-0.552-0.561c-0.001-3.624-0.001-7.247,0-10.871
						C316.987,417.166,316.991,417.162,317.537,417.162z M340.822,451.579c-3.883,0.001-7.766,0-11.65,0c-3.871,0-7.742,0-11.613,0
						c-0.572,0-0.574-0.002-0.574-0.579c-0.001-1.997-0.001-3.994,0.001-5.991c0-0.464,0.023-0.486,0.478-0.487
						c7.803-0.001,15.607-0.001,23.41,0c0.478,0,0.499,0.02,0.499,0.503c0.002,1.997,0.001,3.994,0,5.991
						C341.375,451.574,341.37,451.579,340.822,451.579z"/>
				</g>
				<g>
					<g>
						<rect x="327.418" y="417.053" style="fill:#FFFFFF;" width="1.757" height="1.054"/>
					</g>
					<g>
						<rect x="325.662" y="418.107" style="fill:#FFFFFF;" width="1.757" height="1.054"/>
					</g>
					<g>
						<rect x="327.418" y="419.161" style="fill:#FFFFFF;" width="1.757" height="1.054"/>
					</g>
					<g>
						<rect x="325.662" y="420.215" style="fill:#FFFFFF;" width="1.757" height="1.054"/>
					</g>
					<g>
						<rect x="327.418" y="421.269" style="fill:#FFFFFF;" width="1.757" height="1.054"/>
					</g>
					<g>
						<rect x="325.662" y="422.323" style="fill:#FFFFFF;" width="1.757" height="1.054"/>
					</g>
					<g>
						<rect x="327.418" y="423.378" style="fill:#FFFFFF;" width="1.757" height="1.054"/>
					</g>
					<g>
						<rect x="325.662" y="424.432" style="fill:#FFFFFF;" width="1.757" height="1.054"/>
					</g>
					<g>
						<rect x="327.418" y="425.486" style="fill:#FFFFFF;" width="1.757" height="1.054"/>
					</g>
					<g>
						<rect x="325.662" y="426.54" style="fill:#FFFFFF;" width="1.757" height="1.054"/>
					</g>
					<g>
						<rect x="327.418" y="427.594" style="fill:#FFFFFF;" width="1.757" height="1.054"/>
					</g>
					<g>
						<rect x="325.662" y="428.648" style="fill:#FFFFFF;" width="1.757" height="1.054"/>
					</g>
				</g>
			</g>
			<g>
				<path style="fill:#FFFFFF;" d="M187.637,431.299c-0.006-1.224-0.959-2.121-2.189-2.14c-0.924-0.014-0.832,0.12-0.834-0.867
					c-0.003-1.097-0.007-2.194,0.003-3.292c0.003-0.379-0.112-0.691-0.362-0.976c-2.342-2.668-4.678-5.342-7.019-8.011
					c-0.12-0.137-0.275-0.244-0.414-0.366c-6.214,0-12.427,0-18.641,0c-0.794,0.293-1.14,0.868-1.138,1.709
					c0.01,3.748,0.004,7.496,0.004,11.243c0,0.556-0.003,0.589-0.55,0.551c-1.497-0.102-2.516,0.986-2.497,2.492
					c0.044,3.476,0.013,6.953,0.014,10.429c0.001,1.58,0.867,2.443,2.45,2.449c0.582,0.002,0.582,0.002,0.582,0.6
					c0,2.219-0.001,4.438,0.001,6.657c0.001,1.192,0.58,1.771,1.768,1.771c8.013,0.001,16.027,0.001,24.04,0
					c1.168,0,1.755-0.583,1.757-1.745c0.002-2.256,0-4.512,0.001-6.768c0-0.512,0.002-0.511,0.52-0.515
					c0.271-0.002,0.541,0.008,0.809-0.058c0.996-0.246,1.69-1.044,1.694-2.069C187.652,438.696,187.655,434.997,187.637,431.299z
					 M159.187,417.162c5.337,0,10.674,0,16.01,0c0.548,0,0.554,0.007,0.554,0.561c0.001,2.243-0.001,4.486,0.001,6.73
					c0.001,0.811,0.249,1.059,1.06,1.059c1.91,0.001,3.821,0,5.731,0.001c0.458,0,0.479,0.021,0.481,0.483
					c0.003,0.887,0.002,1.775,0,2.662c-0.001,0.477-0.024,0.498-0.504,0.499c-3.895,0.001-7.79,0-11.684,0
					c-3.882,0-7.765,0-11.647,0c-0.55,0-0.552-0.001-0.552-0.561c-0.001-3.624-0.001-7.247,0-10.871
					C158.636,417.166,158.64,417.162,159.187,417.162z M182.472,451.579c-3.883,0.001-7.766,0-11.65,0c-3.871,0-7.742,0-11.613,0
					c-0.572,0-0.574-0.002-0.574-0.579c-0.001-1.997-0.001-3.994,0.001-5.991c0-0.464,0.023-0.486,0.478-0.487
					c7.803-0.001,15.607-0.001,23.41,0c0.478,0,0.499,0.02,0.499,0.503c0.002,1.997,0.001,3.994,0,5.991
					C183.024,451.574,183.019,451.579,182.472,451.579z"/>
			</g>
			<g>
				<path style="fill:#FFFFFF;" d="M159.779,440.669v-7.897h2.779c0.375,0,0.726,0.061,1.053,0.182
					c0.327,0.121,0.612,0.292,0.855,0.513c0.242,0.221,0.434,0.483,0.573,0.789c0.14,0.305,0.21,0.642,0.21,1.009
					c0,0.375-0.07,0.715-0.21,1.02c-0.14,0.305-0.331,0.568-0.573,0.789c-0.243,0.221-0.528,0.392-0.855,0.513
					c-0.327,0.121-0.678,0.182-1.053,0.182h-1.29v2.901H159.779z M162.58,436.356c0.39,0,0.684-0.111,0.882-0.331
					c0.199-0.22,0.298-0.474,0.298-0.761c0-0.14-0.024-0.276-0.072-0.408c-0.048-0.132-0.121-0.248-0.221-0.347
					c-0.099-0.099-0.223-0.178-0.37-0.237c-0.147-0.059-0.32-0.089-0.518-0.089h-1.312v2.173H162.58z"/>
				<path style="fill:#FFFFFF;" d="M166.308,432.771h1.731l3.177,5.294h0.088l-0.088-1.522v-3.772h1.478v7.897h-1.566l-3.353-5.592
					h-0.088l0.088,1.522v4.07h-1.467V432.771z"/>
				<path style="fill:#FFFFFF;" d="M177.922,436.334h3.872c0.022,0.089,0.04,0.195,0.055,0.32c0.014,0.125,0.022,0.25,0.022,0.375
					c0,0.507-0.077,0.985-0.231,1.434c-0.154,0.449-0.397,0.849-0.728,1.202c-0.353,0.375-0.776,0.666-1.268,0.871
					c-0.493,0.206-1.055,0.309-1.688,0.309c-0.574,0-1.114-0.103-1.622-0.309c-0.507-0.206-0.948-0.492-1.323-0.86
					c-0.375-0.367-0.673-0.803-0.894-1.307c-0.221-0.504-0.331-1.053-0.331-1.649c0-0.595,0.11-1.145,0.331-1.649
					c0.221-0.504,0.518-0.939,0.894-1.307c0.375-0.367,0.816-0.654,1.323-0.86c0.507-0.206,1.048-0.309,1.622-0.309
					c0.64,0,1.211,0.11,1.715,0.331c0.504,0.221,0.935,0.526,1.296,0.915l-1.025,1.004c-0.258-0.272-0.544-0.48-0.861-0.623
					c-0.316-0.143-0.695-0.215-1.136-0.215c-0.361,0-0.703,0.065-1.026,0.193c-0.324,0.129-0.607,0.311-0.85,0.546
					c-0.242,0.235-0.436,0.52-0.579,0.855c-0.143,0.335-0.215,0.708-0.215,1.119c0,0.412,0.072,0.785,0.215,1.12
					c0.143,0.335,0.338,0.62,0.584,0.855c0.246,0.235,0.531,0.418,0.855,0.546c0.323,0.129,0.669,0.193,1.037,0.193
					c0.419,0,0.773-0.061,1.064-0.182c0.29-0.121,0.538-0.278,0.744-0.469c0.148-0.132,0.275-0.3,0.381-0.502
					c0.106-0.202,0.189-0.428,0.248-0.678h-2.482V436.334z"/>
			</g>
			<g>
				<path style="fill:#FFFFFF;" d="M224.019,431.299c-0.006-1.224-0.959-2.121-2.189-2.14c-0.924-0.014-0.832,0.12-0.834-0.867
					c-0.003-1.097-0.007-2.194,0.003-3.292c0.003-0.379-0.112-0.691-0.362-0.976c-2.342-2.668-4.678-5.342-7.019-8.011
					c-0.12-0.137-0.275-0.244-0.414-0.366c-6.214,0-12.427,0-18.641,0c-0.794,0.293-1.14,0.868-1.138,1.709
					c0.01,3.748,0.004,7.496,0.004,11.243c0,0.556-0.003,0.589-0.55,0.551c-1.497-0.102-2.516,0.986-2.497,2.492
					c0.044,3.476,0.013,6.953,0.014,10.429c0.001,1.58,0.867,2.443,2.45,2.449c0.582,0.002,0.582,0.002,0.582,0.6
					c0,2.219-0.001,4.438,0.001,6.657c0.001,1.192,0.58,1.771,1.768,1.771c8.013,0.001,16.027,0.001,24.04,0
					c1.168,0,1.755-0.583,1.757-1.745c0.002-2.256,0-4.512,0.001-6.768c0-0.512,0.002-0.511,0.52-0.515
					c0.271-0.002,0.541,0.008,0.809-0.058c0.997-0.246,1.69-1.044,1.694-2.069C224.034,438.696,224.036,434.997,224.019,431.299z
					 M195.568,417.162c5.337,0,10.674,0,16.01,0c0.548,0,0.554,0.007,0.554,0.561c0.001,2.243-0.001,4.486,0.001,6.73
					c0.001,0.811,0.249,1.059,1.06,1.059c1.91,0.001,3.821,0,5.731,0.001c0.458,0,0.479,0.021,0.481,0.483
					c0.003,0.887,0.002,1.775,0,2.662c-0.001,0.477-0.024,0.498-0.504,0.499c-3.895,0.001-7.79,0-11.684,0
					c-3.882,0-7.765,0-11.647,0c-0.55,0-0.552-0.001-0.552-0.561c-0.001-3.624-0.001-7.247,0-10.871
					C195.018,417.166,195.022,417.162,195.568,417.162z M218.854,451.579c-3.883,0.001-7.766,0-11.65,0c-3.871,0-7.742,0-11.613,0
					c-0.572,0-0.574-0.002-0.574-0.579c-0.001-1.997-0.001-3.994,0.001-5.991c0-0.464,0.023-0.486,0.478-0.487
					c7.803-0.001,15.607-0.001,23.41,0c0.478,0,0.499,0.02,0.499,0.503c0.002,1.997,0.001,3.994,0,5.991
					C219.406,451.574,219.401,451.579,218.854,451.579z"/>
			</g>
			<g>
				<path style="fill:#FFFFFF;" d="M205.111,432.771h1.699l2.967,7.897h-1.644l-0.651-1.886h-3.044l-0.651,1.886h-1.643
					L205.111,432.771z M206.997,437.415l-0.706-1.974l-0.287-0.96h-0.088l-0.287,0.96l-0.706,1.974H206.997z"/>
				<path style="fill:#FFFFFF;" d="M211.331,434.536c-0.125,0-0.245-0.024-0.359-0.072c-0.114-0.048-0.213-0.114-0.298-0.199
					c-0.084-0.084-0.151-0.182-0.198-0.292c-0.048-0.11-0.072-0.232-0.072-0.364s0.024-0.254,0.072-0.364
					c0.048-0.11,0.114-0.208,0.198-0.292c0.084-0.084,0.184-0.151,0.298-0.198c0.114-0.048,0.233-0.072,0.359-0.072
					c0.257,0,0.478,0.09,0.662,0.27c0.184,0.181,0.276,0.399,0.276,0.656s-0.092,0.476-0.276,0.656
					C211.809,434.446,211.589,434.536,211.331,434.536z M210.615,440.669v-5.404h1.445v5.404H210.615z"/>
			</g>
			<g>
				<path style="fill:#FFFFFF;" d="M261.044,431.299c-0.006-1.224-0.959-2.121-2.189-2.14c-0.924-0.014-0.832,0.12-0.834-0.867
					c-0.003-1.097-0.007-2.194,0.003-3.292c0.003-0.379-0.112-0.691-0.362-0.976c-2.342-2.668-4.678-5.342-7.019-8.011
					c-0.12-0.137-0.275-0.244-0.414-0.366c-6.214,0-12.427,0-18.641,0c-0.794,0.293-1.14,0.868-1.138,1.709
					c0.01,3.748,0.004,7.496,0.004,11.243c0,0.556-0.003,0.589-0.55,0.551c-1.497-0.102-2.516,0.986-2.497,2.492
					c0.044,3.476,0.013,6.953,0.014,10.429c0.001,1.58,0.867,2.443,2.45,2.449c0.582,0.002,0.582,0.002,0.582,0.6
					c0,2.219-0.001,4.438,0.001,6.657c0.001,1.192,0.58,1.771,1.768,1.771c8.013,0.001,16.027,0.001,24.04,0
					c1.168,0,1.755-0.583,1.757-1.745c0.002-2.256,0-4.512,0.001-6.768c0-0.512,0.002-0.511,0.52-0.515
					c0.271-0.002,0.541,0.008,0.809-0.058c0.996-0.246,1.69-1.044,1.694-2.069C261.059,438.696,261.061,434.997,261.044,431.299z
					 M232.593,417.162c5.337,0,10.674,0,16.01,0c0.548,0,0.554,0.007,0.554,0.561c0.001,2.243-0.001,4.486,0.001,6.73
					c0.001,0.811,0.249,1.059,1.06,1.059c1.91,0.001,3.821,0,5.731,0.001c0.458,0,0.479,0.021,0.481,0.483
					c0.003,0.887,0.002,1.775,0,2.662c-0.001,0.477-0.024,0.498-0.504,0.499c-3.895,0.001-7.79,0-11.684,0
					c-3.882,0-7.765,0-11.647,0c-0.55,0-0.552-0.001-0.552-0.561c-0.001-3.624-0.001-7.247,0-10.871
					C232.042,417.166,232.047,417.162,232.593,417.162z M255.878,451.579c-3.883,0.001-7.766,0-11.65,0c-3.871,0-7.742,0-11.613,0
					c-0.572,0-0.574-0.002-0.574-0.579c-0.001-1.997-0.001-3.994,0.001-5.991c0-0.464,0.023-0.486,0.478-0.487
					c7.803-0.001,15.607-0.001,23.41,0c0.478,0,0.499,0.02,0.499,0.503c0.002,1.997,0.001,3.994,0,5.991
					C256.431,451.574,256.426,451.579,255.878,451.579z"/>
			</g>
			<g>
				<path style="fill:#FFFFFF;" d="M236.361,440.845c-0.338,0-0.662-0.048-0.971-0.143c-0.309-0.095-0.592-0.239-0.849-0.43
					c-0.257-0.191-0.481-0.425-0.673-0.7c-0.191-0.276-0.342-0.597-0.452-0.965l1.401-0.551c0.103,0.397,0.283,0.726,0.54,0.987
					c0.257,0.261,0.596,0.392,1.015,0.392c0.154,0,0.303-0.02,0.447-0.061c0.143-0.04,0.272-0.099,0.386-0.176
					s0.204-0.175,0.27-0.292c0.066-0.118,0.099-0.254,0.099-0.408c0-0.147-0.026-0.279-0.077-0.397
					c-0.051-0.117-0.138-0.227-0.259-0.331c-0.121-0.103-0.28-0.202-0.475-0.298c-0.195-0.095-0.435-0.195-0.722-0.298l-0.485-0.176
					c-0.213-0.073-0.429-0.173-0.645-0.298c-0.217-0.125-0.413-0.276-0.59-0.452c-0.177-0.176-0.322-0.384-0.436-0.623
					c-0.114-0.239-0.171-0.509-0.171-0.81c0-0.309,0.06-0.597,0.182-0.866c0.121-0.268,0.294-0.503,0.518-0.706
					c0.224-0.202,0.492-0.36,0.805-0.474s0.66-0.171,1.042-0.171c0.397,0,0.74,0.053,1.031,0.16
					c0.291,0.107,0.537,0.243,0.739,0.408c0.202,0.165,0.366,0.348,0.491,0.546c0.125,0.199,0.217,0.386,0.276,0.563l-1.312,0.551
					c-0.074-0.221-0.208-0.419-0.402-0.596c-0.195-0.176-0.462-0.265-0.8-0.265c-0.324,0-0.592,0.075-0.805,0.226
					c-0.213,0.151-0.32,0.348-0.32,0.59c0,0.235,0.103,0.436,0.309,0.601c0.206,0.165,0.533,0.325,0.982,0.48l0.497,0.165
					c0.316,0.111,0.605,0.237,0.866,0.381c0.261,0.143,0.485,0.314,0.673,0.513c0.187,0.199,0.331,0.425,0.43,0.678
					c0.1,0.254,0.149,0.546,0.149,0.877c0,0.412-0.083,0.767-0.248,1.064c-0.165,0.298-0.377,0.542-0.634,0.734
					c-0.258,0.191-0.548,0.335-0.872,0.43C236.986,440.797,236.67,440.845,236.361,440.845z"/>
				<path style="fill:#FFFFFF;" d="M239.516,432.771h1.61l1.633,4.754l0.287,1.015h0.088l0.309-1.015l1.699-4.754h1.61l-2.879,7.897
					h-1.566L239.516,432.771z"/>
				<path style="fill:#FFFFFF;" d="M251.097,436.334h3.871c0.022,0.089,0.04,0.195,0.055,0.32c0.015,0.125,0.023,0.25,0.023,0.375
					c0,0.507-0.078,0.985-0.232,1.434c-0.154,0.449-0.397,0.849-0.728,1.202c-0.353,0.375-0.775,0.666-1.268,0.871
					c-0.493,0.206-1.055,0.309-1.688,0.309c-0.574,0-1.114-0.103-1.621-0.309c-0.507-0.206-0.949-0.492-1.324-0.86
					c-0.375-0.367-0.673-0.803-0.894-1.307c-0.22-0.504-0.331-1.053-0.331-1.649c0-0.595,0.11-1.145,0.331-1.649
					c0.221-0.504,0.518-0.939,0.894-1.307c0.375-0.367,0.816-0.654,1.324-0.86c0.507-0.206,1.047-0.309,1.621-0.309
					c0.64,0,1.211,0.11,1.715,0.331c0.504,0.221,0.936,0.526,1.296,0.915l-1.026,1.004c-0.257-0.272-0.544-0.48-0.861-0.623
					c-0.316-0.143-0.694-0.215-1.136-0.215c-0.36,0-0.702,0.065-1.026,0.193c-0.323,0.129-0.607,0.311-0.849,0.546
					c-0.243,0.235-0.436,0.52-0.579,0.855c-0.143,0.335-0.215,0.708-0.215,1.119c0,0.412,0.072,0.785,0.215,1.12
					c0.143,0.335,0.338,0.62,0.585,0.855c0.246,0.235,0.531,0.418,0.854,0.546c0.324,0.129,0.669,0.193,1.037,0.193
					c0.419,0,0.774-0.061,1.064-0.182c0.29-0.121,0.539-0.278,0.745-0.469c0.147-0.132,0.274-0.3,0.38-0.502
					c0.107-0.202,0.189-0.428,0.248-0.678h-2.482V436.334z"/>
			</g>
			<g>
				<path style="fill:#FFFFFF;" d="M297.3,431.299c-0.006-1.224-0.959-2.121-2.189-2.14c-0.924-0.014-0.832,0.12-0.834-0.867
					c-0.003-1.097-0.007-2.194,0.003-3.292c0.003-0.379-0.112-0.691-0.362-0.976c-2.342-2.668-4.678-5.342-7.019-8.011
					c-0.12-0.137-0.275-0.244-0.414-0.366c-6.214,0-12.427,0-18.641,0c-0.794,0.293-1.14,0.868-1.138,1.709
					c0.01,3.748,0.004,7.496,0.004,11.243c0,0.556-0.003,0.589-0.55,0.551c-1.497-0.102-2.516,0.986-2.497,2.492
					c0.044,3.476,0.013,6.953,0.014,10.429c0.001,1.58,0.867,2.443,2.45,2.449c0.582,0.002,0.582,0.002,0.582,0.6
					c0,2.219-0.001,4.438,0.001,6.657c0.001,1.192,0.58,1.771,1.768,1.771c8.013,0.001,16.027,0.001,24.04,0
					c1.168,0,1.755-0.583,1.757-1.745c0.002-2.256,0-4.512,0.001-6.768c0-0.512,0.002-0.511,0.52-0.515
					c0.271-0.002,0.541,0.008,0.809-0.058c0.996-0.246,1.69-1.044,1.694-2.069C297.315,438.696,297.318,434.997,297.3,431.299z
					 M268.85,417.162c5.337,0,10.674,0,16.01,0c0.548,0,0.554,0.007,0.554,0.561c0.001,2.243-0.001,4.486,0.001,6.73
					c0.001,0.811,0.249,1.059,1.06,1.059c1.91,0.001,3.821,0,5.731,0.001c0.458,0,0.479,0.021,0.481,0.483
					c0.003,0.887,0.002,1.775,0,2.662c-0.001,0.477-0.024,0.498-0.504,0.499c-3.895,0.001-7.79,0-11.684,0
					c-3.882,0-7.765,0-11.647,0c-0.55,0-0.552-0.001-0.552-0.561c-0.001-3.624-0.001-7.247,0-10.871
					C268.299,417.166,268.303,417.162,268.85,417.162z M292.135,451.579c-3.883,0.001-7.766,0-11.65,0c-3.871,0-7.742,0-11.613,0
					c-0.572,0-0.574-0.002-0.574-0.579c-0.001-1.997-0.001-3.994,0.001-5.991c0-0.464,0.023-0.486,0.478-0.487
					c7.803-0.001,15.607-0.001,23.41,0c0.478,0,0.499,0.02,0.499,0.503c0.001,1.997,0.001,3.994,0,5.991
					C292.687,451.574,292.682,451.579,292.135,451.579z"/>
			</g>
			<g>
				<path style="fill:#FFFFFF;" d="M272.966,434.183v1.831h3.165v1.412h-3.165v1.831h3.518v1.412h-5.007v-7.897h5.007v1.412H272.966
					z"/>
				<path style="fill:#FFFFFF;" d="M277.852,440.669v-7.897h2.779c0.375,0,0.726,0.061,1.053,0.182
					c0.327,0.121,0.612,0.292,0.855,0.513c0.243,0.221,0.434,0.483,0.574,0.789c0.14,0.305,0.209,0.642,0.209,1.009
					c0,0.375-0.07,0.715-0.209,1.02c-0.14,0.305-0.331,0.568-0.574,0.789c-0.243,0.221-0.528,0.392-0.855,0.513
					c-0.327,0.121-0.678,0.182-1.053,0.182h-1.29v2.901H277.852z M280.653,436.356c0.389,0,0.684-0.111,0.882-0.331
					c0.199-0.22,0.298-0.474,0.298-0.761c0-0.14-0.024-0.276-0.072-0.408c-0.048-0.132-0.121-0.248-0.221-0.347
					c-0.099-0.099-0.222-0.178-0.37-0.237c-0.147-0.059-0.32-0.089-0.518-0.089h-1.312v2.173H280.653z"/>
				<path style="fill:#FFFFFF;" d="M286.797,440.845c-0.338,0-0.662-0.048-0.971-0.143c-0.309-0.095-0.592-0.239-0.849-0.43
					c-0.257-0.191-0.482-0.425-0.673-0.7c-0.191-0.276-0.342-0.597-0.452-0.965l1.401-0.551c0.103,0.397,0.283,0.726,0.541,0.987
					c0.257,0.261,0.595,0.392,1.015,0.392c0.154,0,0.303-0.02,0.447-0.061c0.143-0.04,0.272-0.099,0.386-0.176
					c0.114-0.077,0.204-0.175,0.27-0.292c0.066-0.118,0.1-0.254,0.1-0.408c0-0.147-0.026-0.279-0.077-0.397
					c-0.051-0.117-0.138-0.227-0.259-0.331c-0.121-0.103-0.279-0.202-0.474-0.298c-0.195-0.095-0.436-0.195-0.723-0.298
					l-0.485-0.176c-0.213-0.073-0.428-0.173-0.645-0.298c-0.217-0.125-0.414-0.276-0.59-0.452c-0.176-0.176-0.322-0.384-0.436-0.623
					c-0.114-0.239-0.171-0.509-0.171-0.81c0-0.309,0.061-0.597,0.182-0.866c0.121-0.268,0.294-0.503,0.518-0.706
					c0.224-0.202,0.493-0.36,0.805-0.474c0.312-0.114,0.66-0.171,1.042-0.171c0.397,0,0.741,0.053,1.031,0.16
					c0.29,0.107,0.537,0.243,0.739,0.408c0.202,0.165,0.365,0.348,0.491,0.546c0.125,0.199,0.217,0.386,0.276,0.563l-1.312,0.551
					c-0.074-0.221-0.208-0.419-0.403-0.596c-0.195-0.176-0.462-0.265-0.799-0.265c-0.324,0-0.592,0.075-0.805,0.226
					c-0.213,0.151-0.32,0.348-0.32,0.59c0,0.235,0.103,0.436,0.309,0.601c0.206,0.165,0.533,0.325,0.982,0.48l0.496,0.165
					c0.316,0.111,0.605,0.237,0.866,0.381c0.261,0.143,0.485,0.314,0.673,0.513c0.187,0.199,0.331,0.425,0.43,0.678
					c0.099,0.254,0.149,0.546,0.149,0.877c0,0.412-0.083,0.767-0.248,1.064c-0.165,0.298-0.377,0.542-0.634,0.734
					c-0.258,0.191-0.548,0.335-0.872,0.43C287.422,440.797,287.105,440.845,286.797,440.845z"/>
			</g>
			<g>
				<path style="fill:#FFFFFF;" d="M321.394,439.168l4.004-4.985h-3.827v-1.412h5.559v1.5l-3.96,4.985h4.004v1.412h-5.779V439.168z"
					/>
				<path style="fill:#FFFFFF;" d="M328.409,432.771h1.489v7.897h-1.489V432.771z"/>
				<path style="fill:#FFFFFF;" d="M331.486,440.669v-7.897h2.779c0.375,0,0.726,0.061,1.053,0.182
					c0.327,0.121,0.612,0.292,0.855,0.513s0.434,0.483,0.574,0.789c0.14,0.305,0.209,0.642,0.209,1.009
					c0,0.375-0.07,0.715-0.209,1.02c-0.14,0.305-0.331,0.568-0.574,0.789c-0.243,0.221-0.528,0.392-0.855,0.513
					c-0.327,0.121-0.678,0.182-1.053,0.182h-1.29v2.901H331.486z M334.288,436.356c0.389,0,0.684-0.111,0.882-0.331
					c0.199-0.22,0.298-0.474,0.298-0.761c0-0.14-0.024-0.276-0.072-0.408c-0.048-0.132-0.121-0.248-0.221-0.347
					c-0.099-0.099-0.222-0.178-0.37-0.237c-0.147-0.059-0.32-0.089-0.518-0.089h-1.312v2.173H334.288z"/>
			</g>
		</g>
		<g style="opacity:0.61;">
			<path style="fill:#FFFFFF;" d="M300.133,433.27h9.067v2.242h-9.067V433.27z M300.133,437.136h9.067v2.243h-9.067V437.136z"/>
		</g>
	</g>
	<g style="opacity:0.61;">
		<path style="fill:#FFFFFF;" d="M156.756,478.878h1.607c1.263,0,2.114,0.812,2.114,1.974c0,1.161-0.851,1.973-2.114,1.973h-1.607
			V478.878z M158.34,482.464c1.049,0,1.725-0.665,1.725-1.612c0-0.947-0.677-1.613-1.725-1.613h-1.167v3.225H158.34z"/>
		<path style="fill:#FFFFFF;" d="M165.139,480.851c0-1.15,0.879-2.007,2.075-2.007c1.184,0,2.069,0.851,2.069,2.007
			c0,1.156-0.885,2.007-2.069,2.007C166.019,482.858,165.139,482.002,165.139,480.851z M168.866,480.851
			c0-0.942-0.705-1.635-1.652-1.635c-0.953,0-1.663,0.693-1.663,1.635c0,0.941,0.71,1.635,1.663,1.635
			C168.162,482.486,168.866,481.793,168.866,480.851z"/>
		<path style="fill:#FFFFFF;" d="M179.596,478.878l-1.331,3.947h-0.44l-1.156-3.366l-1.161,3.366h-0.434l-1.331-3.947h0.429
			l1.139,3.394l1.178-3.394h0.389l1.161,3.411l1.156-3.411H179.596z"/>
		<path style="fill:#FFFFFF;" d="M187.731,478.878v3.947h-0.344l-2.537-3.202v3.202h-0.417v-3.947h0.344l2.543,3.203v-3.203H187.731
			z"/>
		<path style="fill:#FFFFFF;" d="M193.093,478.878h0.417v3.586h2.21v0.361h-2.627V478.878z"/>
		<path style="fill:#FFFFFF;" d="M200.061,480.851c0-1.15,0.879-2.007,2.075-2.007c1.184,0,2.069,0.851,2.069,2.007
			c0,1.156-0.885,2.007-2.069,2.007C200.941,482.858,200.061,482.002,200.061,480.851z M203.788,480.851
			c0-0.942-0.705-1.635-1.652-1.635c-0.953,0-1.663,0.693-1.663,1.635c0,0.941,0.71,1.635,1.663,1.635
			C203.083,482.486,203.788,481.793,203.788,480.851z"/>
		<path style="fill:#FFFFFF;" d="M211.636,481.77h-2.199l-0.474,1.054h-0.434l1.804-3.947h0.412l1.804,3.947h-0.44L211.636,481.77z
			 M211.484,481.432l-0.947-2.12l-0.947,2.12H211.484z"/>
		<path style="fill:#FFFFFF;" d="M217.28,478.878h1.607c1.263,0,2.114,0.812,2.114,1.974c0,1.161-0.851,1.973-2.114,1.973h-1.607
			V478.878z M218.864,482.464c1.049,0,1.725-0.665,1.725-1.612c0-0.947-0.677-1.613-1.725-1.613h-1.167v3.225H218.864z"/>
		<path style="fill:#FFFFFF;" d="M234.041,481.77h-2.199l-0.474,1.054h-0.434l1.804-3.947h0.412l1.804,3.947h-0.44L234.041,481.77z
			 M233.889,481.432l-0.947-2.12l-0.947,2.12H233.889z"/>
		<path style="fill:#FFFFFF;" d="M239.685,478.878h0.417v3.586h2.21v0.361h-2.627V478.878z"/>
		<path style="fill:#FFFFFF;" d="M247.082,478.878h0.417v3.586h2.21v0.361h-2.627V478.878z"/>
		<path style="fill:#FFFFFF;" d="M260.449,479.239v1.551h2.041v0.361h-2.041v1.675h-0.417v-3.947h2.706v0.361H260.449z"/>
		<path style="fill:#FFFFFF;" d="M267.678,478.878h0.417v3.947h-0.417V478.878z"/>
		<path style="fill:#FFFFFF;" d="M273.456,478.878h0.417v3.586h2.21v0.361h-2.627V478.878z"/>
		<path style="fill:#FFFFFF;" d="M283.644,482.464v0.361h-2.791v-3.947h2.706v0.361h-2.289v1.404h2.041v0.355h-2.041v1.466H283.644z
			"/>
		<path style="fill:#FFFFFF;" d="M294.672,479.239v1.551h2.041v0.361h-2.041v1.675h-0.417v-3.947h2.706v0.361H294.672z"/>
		<path style="fill:#FFFFFF;" d="M301.5,480.851c0-1.15,0.879-2.007,2.075-2.007c1.184,0,2.069,0.851,2.069,2.007
			c0,1.156-0.885,2.007-2.069,2.007C302.379,482.858,301.5,482.002,301.5,480.851z M305.226,480.851
			c0-0.942-0.705-1.635-1.652-1.635c-0.953,0-1.663,0.693-1.663,1.635c0,0.941,0.71,1.635,1.663,1.635
			C304.522,482.486,305.226,481.793,305.226,480.851z"/>
		<path style="fill:#FFFFFF;" d="M313.351,482.825l-0.902-1.269c-0.102,0.011-0.203,0.017-0.316,0.017h-1.06v1.252h-0.417v-3.947
			h1.477c1.004,0,1.613,0.507,1.613,1.353c0,0.62-0.327,1.054-0.902,1.24l0.964,1.353H313.351z M313.328,480.231
			c0-0.632-0.417-0.992-1.207-0.992h-1.048v1.979h1.048C312.911,481.218,313.328,480.851,313.328,480.231z"/>
		<path style="fill:#FFFFFF;" d="M322.907,478.878v3.947h-0.4v-3.158l-1.551,2.656h-0.197l-1.551-2.639v3.14h-0.4v-3.947h0.344
			l1.714,2.926l1.697-2.926H322.907z"/>
		<path style="fill:#FFFFFF;" d="M330.744,481.77h-2.199l-0.473,1.054h-0.434l1.804-3.947h0.411l1.804,3.947h-0.44L330.744,481.77z
			 M330.592,481.432l-0.947-2.12l-0.947,2.12H330.592z"/>
		<path style="fill:#FFFFFF;" d="M336.957,479.239h-1.387v-0.361h3.192v0.361h-1.387v3.586h-0.417V479.239z"/>
		<path style="fill:#FFFFFF;" d="M343.063,482.346l0.164-0.321c0.282,0.276,0.784,0.479,1.302,0.479c0.739,0,1.06-0.31,1.06-0.699
			c0-1.083-2.43-0.417-2.43-1.877c0-0.581,0.451-1.083,1.455-1.083c0.446,0,0.908,0.13,1.224,0.35l-0.141,0.333
			c-0.338-0.22-0.733-0.327-1.083-0.327c-0.722,0-1.043,0.321-1.043,0.716c0,1.083,2.43,0.429,2.43,1.866
			c0,0.581-0.462,1.077-1.472,1.077C343.937,482.858,343.356,482.65,343.063,482.346z"/>
	</g>
</g>
<g>
</g>
<g>
	<g>
		<path style="fill:#FFFFFF;" d="M389.655,51.752c-0.01,0-0.015,0.002-0.015,0.002l0,0L389.655,51.752z M470.617,166.121
			c0-3.25-0.148-6.443-0.394-9.569c-0.017-0.323-0.026-0.533-0.035-0.567c0-0.066-0.017-0.145-0.026-0.211h0.01
			c-1.026-12.174-3.642-23.705-6.699-33.675c-3.055-9.977-6.539-18.34-9.497-24.313l-0.016-0.02
			c-1.048-2.095-2.638-3.812-4.452-4.939c-1.815-1.14-3.865-1.737-5.99-1.737c-0.33,0-0.652,0.027-0.985,0.059
			c-3.621-6.651-7.161-12.54-10.14-17.454v0.008c-1.1-1.838-2.646-3.326-4.365-4.294c-1.726-0.982-3.619-1.485-5.564-1.485
			c-1.968-0.01-3.995,0.574-5.8,1.669c-1.636-2.704-3.147-5.109-4.489-7.169c-1.735-2.684-3.17-4.792-4.192-6.26
			c-0.505-0.731-0.917-1.296-1.211-1.701c-0.132-0.193-0.249-0.351-0.318-0.455l-0.097-0.124v-0.008h-0.013v0.005l-0.058-0.101
			c-1.156-1.547-2.628-2.768-4.228-3.565c-1.59-0.808-3.309-1.209-5.048-1.216c-2.54-0.005-5.209,0.919-7.37,2.753l0,0l0,0
			c-1.433,1.227-2.58,2.796-3.334,4.498c-0.749,1.704-1.125,3.54-1.13,5.396c-0.005,2.723,0.858,5.571,2.58,7.865
			c0.013,0.015,0.013,0.028,0.036,0.041v0.007c0.03,0.046,0.205,0.274,0.442,0.62c0.332,0.45,0.813,1.148,1.429,2.042
			c-1.245,1.043-2.28,2.326-3.024,3.733c-1,1.91-1.524,4.037-1.524,6.222c0,2.141,0.516,4.358,1.577,6.313v0.012
			c0.534,0.981,1.077,1.998,1.617,3.039c-0.346,0.457-0.68,0.947-0.96,1.458c-1.112,1.971-1.704,4.218-1.709,6.539
			c0,1.758,0.365,3.57,1.087,5.246c-14.379-25.362-36.472-42.718-62.32-48.453c-47.304-10.495-91.034,14.477-111.681,62.256
			c-5.119-1.922-10.407-3.641-16.013-4.896c-22.74-5.066-49.211,0.12-70.834,13.878c-22.019,13.982-37.319,35.816-43.056,61.472
			c-6.915,31.215-2.217,61.82,13.545,89.599c-16.948,5.371-41.802,20.216-54.022,45.621c-7.144,14.845-10.99,32.047-12.996,56.616
			c-1.432,17.609,0.477,27.758,3.08,41.402c2.626,13.649,10.897,16.738,27.451,22.022c16.531,5.294,43.117,6.612,79.276,4.395
			c36.141-2.196,70.977-8.363,92.768-15.935c35.699,8.337,56.889,14.31,107.463,17.868c50.603,3.548,91.26-18.725,103.433-48.224
			c12.144-29.506,15.133-62,13.398-88.329c-0.566-8.418-3.943-13.942-9.456-17.891c0.508-0.464,1.005-0.972,1.495-1.542
			c4.508-5.275,7.59-10.726,9.569-15.826c0.982-2.55,1.691-5.013,2.169-7.36c0.468-2.349,0.711-4.579,0.711-6.765v-0.168
			c-0.01-1.432-0.119-2.803-0.378-4.162c-0.005-0.079-0.04-0.157-0.043-0.244c0.143-0.211,0.307-0.421,0.455-0.635
			c2.699-4.124,4.371-8.428,5.424-12.456c1.061-4.055,1.513-7.809,1.524-11.235c0-1.056-0.043-2.082-0.157-3.134
			c-0.079-0.794-0.203-1.595-0.391-2.468c-0.14-0.652-0.32-1.348-0.6-2.131c-0.017-0.076-0.061-0.16-0.096-0.242
			c1.511-3.672,2.4-7.37,3.019-11.003c0.622-3.764,0.917-7.398,0.925-10.731v-0.01c0-1.231-0.053-2.417-0.142-3.603
			c-0.073-0.887-0.18-1.768-0.332-2.699c-0.127-0.693-0.272-1.417-0.501-2.22c-0.173-0.602-0.384-1.257-0.7-2.004
			c-0.079-0.177-0.177-0.369-0.267-0.562c0.082-0.266,0.162-0.585,0.251-0.97c0.086-0.403,0.122-0.65,0.147-0.779l0.023-0.101
			h-0.005c0.455-2.143,0.788-4.309,1.026-6.531h0.008c0-0.038,0-0.081,0.008-0.119c0-0.012,0-0.017,0-0.028
			c0.341-2.879,0.587-5.79,0.587-8.636h0.01v-0.175v-0.002v-0.003c0.074-2.356,0.109-4.675,0.109-6.884c0-1.188,0-2.347-0.016-3.456
			C470.597,167.124,470.613,166.731,470.617,166.121z"/>
	</g>
	<path style="fill:#EBA700;" d="M442.285,177.495"/>
	<path style="fill:#EBA700;" d="M427.025,189.519"/>
	<path style="fill:#EDB000;" d="M415.585,281.352"/>
	<g>
		<g>
			<path style="fill:#FFFFFF;" d="M466.806,446.776c-2.827,2.748-6.206,4.124-10.148,4.124c-4.074,0-7.502-1.415-10.288-4.206
				c-2.786-2.796-4.193-6.244-4.193-10.32c0-4.272,1.521-7.786,4.518-10.59c2.834-2.638,6.151-3.953,9.963-3.953
				c4,0,7.423,1.434,10.244,4.268c2.836,2.831,4.238,6.257,4.238,10.275C471.14,440.488,469.698,443.964,466.806,446.776z
				 M448.158,427.976c-2.296,2.364-3.461,5.16-3.461,8.398c0,3.344,1.178,6.196,3.535,8.532c2.323,2.362,5.148,3.532,8.453,3.532
				c3.291,0,6.1-1.193,8.43-3.532c2.349-2.375,3.497-5.206,3.497-8.532c0-3.238-1.148-6.024-3.462-8.398
				c-2.356-2.42-5.173-3.603-8.464-3.603C453.359,424.373,450.515,425.556,448.158,427.976z M450.345,444.432v-16.059
				c1.003,0,2.493,0.008,4.472,0.008c1.981,0.01,3.085,0.023,3.304,0.041c1.28,0.086,2.323,0.376,3.172,0.818
				c1.412,0.797,2.126,2.082,2.126,3.847c0,1.336-0.374,2.336-1.14,2.926c-0.764,0.619-1.679,0.96-2.796,1.087
				c1.034,0.206,1.81,0.513,2.341,0.897c0.96,0.724,1.453,1.92,1.453,3.576v1.437c0,0.167,0.015,0.317,0.023,0.465
				c0.008,0.17,0.043,0.341,0.078,0.487l0.114,0.468h-4.03c-0.122-0.526-0.215-1.275-0.29-2.235c-0.051-0.99-0.127-1.648-0.261-1.99
				c-0.203-0.561-0.605-0.955-1.158-1.199c-0.325-0.116-0.797-0.211-1.447-0.246l-0.911-0.071h-0.889v5.741H450.345z
				 M457.971,431.532c-0.577-0.209-1.392-0.333-2.448-0.333h-1.016v4.677h1.625c0.982,0,1.754-0.19,2.296-0.584
				c0.544-0.394,0.831-1.043,0.831-1.928C459.259,432.479,458.83,431.869,457.971,431.532z"/>
		</g>
	</g>
	<g>
		
			<radialGradient id="SVGID_1_" cx="434.7052" cy="329.9354" r="238.1343" gradientTransform="matrix(1 0 0 1 -144.2148 -186.7539)" gradientUnits="userSpaceOnUse">
			<stop  offset="0.0056" style="stop-color:#F29A92"/>
			<stop  offset="0.2865" style="stop-color:#E20613"/>
			<stop  offset="1" style="stop-color:#BF0D0D"/>
		</radialGradient>
		<path style="fill:url(#SVGID_1_);" d="M334.515,131.952c-20.778-3.522-39.679,7.405-45.552,34.123
			c-7.423,33.079,5.873,67.784,31.544,73.585c18.688,4.142,31.731-5.801,39.333-22.189
			C373.377,188.247,369.13,137.839,334.515,131.952z"/>
		
			<radialGradient id="SVGID_00000057863581148327173300000018073529621216684424_" cx="434.7057" cy="329.9323" r="238.1372" gradientTransform="matrix(1 0 0 1 -144.2148 -186.7539)" gradientUnits="userSpaceOnUse">
			<stop  offset="0.0056" style="stop-color:#F29A92"/>
			<stop  offset="0.2865" style="stop-color:#E20613"/>
			<stop  offset="1" style="stop-color:#BF0D0D"/>
		</radialGradient>
		<path style="fill:url(#SVGID_00000057863581148327173300000018073529621216684424_);" d="M153.613,273.531
			c-0.426-0.465-0.869-0.934-1.283-1.407c-16.283-21.027-23.841-46.316-17.682-73.872c8.109-36.641,44.824-50.778,67.363-45.723
			c26.374,5.889,37.736,20.462,43.29,36.463c0.211,0.711,0.538,1.716,0.467,1.716c-0.127,0.048-0.789-0.746-1.273-1.3
			c-7.671-8.909-18.334-15.32-25.448-16.907c-15.014-3.345-27.89,4.791-31.946,23.38c-11.123,49.785,51.367,102.07,135.3,104.554
			c16.336-15.204,25.664-39.118,31.885-61.902c-6.069,8.655-23.113,18.621-44.772,13.79c-44.841-9.996-66.751-56.947-57.576-98.387
			c8.406-37.319,37.122-64.85,73.491-56.802c18.761,4.193,33.686,19.833,41.83,39.737l-0.011-0.017
			c11.453,26.319,16.996,78.176-11.874,141.268l0.061-0.191c-7.27,16.978-16.336,29.128-26.68,37.525
			c4.754,0.665,9.312,1.199,13.763,1.628c4.574,0.431,9.053,0.75,13.548,1c6.056-8.299,11.374-17.741,15.905-28.324
			c-0.087,0.246-0.267,0.622-0.351,0.817c40.496-88.516,19.709-150.471,12.357-167.335c-12.229-29.803-35.009-50.713-62.299-56.767
			c-45.454-10.092-87.12,16.636-103.99,64.37c-6.8-3.23-14.269-5.78-22.41-7.603c-20.323-4.533-44.009,0.178-63.501,12.573
			c-19.864,12.618-33.611,32.312-38.78,55.382c-6.508,29.386-1.815,58.26,13.614,84.428
			C117.952,272.795,132.873,271.401,153.613,273.531z"/>
	</g>
	
		<radialGradient id="SVGID_00000146458276259731315220000006226260214225287074_" cx="519.692" cy="518.4332" r="323.3445" gradientTransform="matrix(1.0073 -0.0256 0 1 -146.5698 -178.9097)" gradientUnits="userSpaceOnUse">
		<stop  offset="0" style="stop-color:#B4E0F9"/>
		<stop  offset="0.2135" style="stop-color:#0098DA"/>
		<stop  offset="1" style="stop-color:#005FAA"/>
	</radialGradient>
	<path style="fill:url(#SVGID_00000146458276259731315220000006226260214225287074_);" d="M384.821,288.6
		c-0.333-0.041-0.653-0.066-0.963-0.102l-0.015,0.045c-0.003,0-0.008,0-0.008,0c-0.29,0.666-0.595,1.34-0.886,2.008l5.257,0.157
		c5.036,0.315,9.589,0.746,13.72,1.24c0.185-0.556,0.391-1.092,0.566-1.661C397.02,289.492,390.864,288.955,384.821,288.6z"/>
	<g>
		
			<radialGradient id="SVGID_00000048497677389131742810000004990381976087109268_" cx="551.0544" cy="479.7867" r="36.3668" gradientTransform="matrix(1 0 0 1 -144.2148 -186.7539)" gradientUnits="userSpaceOnUse">
			<stop  offset="0" style="stop-color:#005CA8"/>
			<stop  offset="1" style="stop-color:#102D69"/>
		</radialGradient>
		<path style="fill:url(#SVGID_00000048497677389131742810000004990381976087109268_);" d="M382.949,290.55
			c-0.472,1.064-0.927,2.138-1.419,3.205l0.01,0.01l-0.11,0.28c-0.015,0.013-0.294,0.666-0.294,0.666l-0.005-0.008
			c-0.056,0.122-0.092,0.226-0.153,0.35l-0.045-0.018c-3.715,8.513-7.921,16.344-12.565,23.495
			c7.913,0.096,15.064-0.162,21.466-0.67c3.921-6.565,8.557-15.533,12.092-25.913c-4.131-0.495-8.684-0.925-13.72-1.24
			L382.949,290.55z"/>
		
			<radialGradient id="SVGID_00000027605933884594200810000001687809345965027751_" cx="551.0513" cy="479.7806" r="36.3669" gradientTransform="matrix(1 0 0 1 -144.2148 -186.7539)" gradientUnits="userSpaceOnUse">
			<stop  offset="0" style="stop-color:#005CA8"/>
			<stop  offset="1" style="stop-color:#102D69"/>
		</radialGradient>
		<path style="fill:url(#SVGID_00000027605933884594200810000001687809345965027751_);" d="M428.545,298.488
			c-0.643-0.209-1.752-0.569-3.269-1.024c-2.699,4.119-6.234,9.81-9.959,16.62c1.704-0.394,3.316-0.785,4.823-1.178
			c9.043-2.341,13.812-4.787,15.849-7.09C436.932,302.554,432.919,299.885,428.545,298.488z"/>
	</g>
	
		<radialGradient id="SVGID_00000169560493660152546360000014110983186905580207_" cx="521.1713" cy="512.7551" r="322.9569" gradientTransform="matrix(1 0 0 1 -144.2148 -186.7539)" gradientUnits="userSpaceOnUse">
		<stop  offset="0" style="stop-color:#BCE3F9"/>
		<stop  offset="0.2135" style="stop-color:#0097D9"/>
		<stop  offset="1" style="stop-color:#164193"/>
	</radialGradient>
	<path style="fill:url(#SVGID_00000169560493660152546360000014110983186905580207_);" d="M133.077,399.449
		c57.628,3.568,131.989,37.573,202.971,38.642c71.053,1.109,88.497-19.678,101.26-52.442c4.04-10.386,7.677-31.25,9-48.76
		c0.604-7.966,0.726-15.234,0.209-20.514c-0.262-2.651-0.534-4.85-0.995-6.744c-1.361-5.666-4.464-8.545-14.358-12.435
		c-0.008-0.005-0.016-0.015-0.031-0.015c-0.582-0.234-1.226-0.464-1.879-0.691c-0.851-0.272-1.773-0.561-2.778-0.841
		c-0.376,0.569-0.78,1.174-1.201,1.815c1.518,0.455,2.626,0.815,3.269,1.024c4.373,1.397,8.387,4.066,7.445,7.328
		c0-0.005,0.003-0.015,0.012-0.018c-0.678,2.857-5.135,6.178-16.626,9.498c-12.651,3.69-32.723,7.836-62.74,7.108
		c-31.294-0.731-61.647-4.881-129.336-23.932c-67.673-19.043-103.52-17.72-125.052-11.06c-21.476,6.617-44.232,21.77-54.846,49.707
		c-6.793,17.877-11.674,39.96-8.38,68.339c0.526,4.5,1.242,9.145,2.204,13.964c0.784,3.847,5.755,7.852,14.543,10.307
		c21.324,5.81,51.946,8.228,71.462,7.088c0.607,0,1.242,0,1.849,0c2.012-0.157,3.888-0.35,5.604-0.591
		c-32.774-0.381-57.939-4.408-72.722-7.997c-4.972-1.183-17.209-6.164-12.055-14.625c2.666-4.408,9.348-9.013,23.254-11.91
		C85.981,398.951,105.054,397.679,133.077,399.449z"/>
	<g>
		<g>
			<g>
				
					<radialGradient id="SVGID_00000099628250942342383470000013024110543023402889_" cx="403.7166" cy="557.6609" r="159.3529" gradientTransform="matrix(1 0 0 1 -144.2148 -186.7539)" gradientUnits="userSpaceOnUse">
					<stop  offset="0" style="stop-color:#005BA7"/>
					<stop  offset="1" style="stop-color:#14387F"/>
				</radialGradient>
				<path style="fill:url(#SVGID_00000099628250942342383470000013024110543023402889_);" d="M398.084,406.119
					c-0.632-1.204-0.78-2.349-0.937-3.504c-0.137-1.021-0.154-1.938-0.203-2.666c-0.272-4.863,0.312-11.532,1.727-19.8
					c1.156-6.638,3.492-14.148,3.924-15.402c0.467-1.247-0.67-2.41-2.172-2.704c-8.198-1.668-29.759-3.908-42.764,14.416
					c-5.46,7.76-8.01,16.527-7.537,25.927c0.264,4.731,1.516,8.111,3.741,10.069c1.796,1.622,4.365,2.331,7.578,2.138
					c7.736-0.516,14.638-6.546,21.666-18.972l1.227-2.06l-0.262,9.728l0.114,1.455c0.236,5.162,2.991,7.445,8.827,7.339
					c2.095-0.048,5.417-0.968,6.316-1.923C400.248,409.203,398.714,407.303,398.084,406.119z M389.166,369.908
					c-1.948,6.31-7.04,17.011-11.276,23.863c-4.211,6.659-6.429,8.844-9.423,10.13c-3.025,1.298-4.244-3.535-4.389-5.807
					c-0.246-5.289,0.048-11.567,4.667-17.85c9.503-13.017,19.529-11.23,19.901-11.151l0.728,0.119L389.166,369.908z"/>
				
					<radialGradient id="SVGID_00000070841189543564049420000011689116504183230378_" cx="478.9494" cy="647.9823" r="198.9071" gradientTransform="matrix(0.8012 0 0 0.8012 -124.2355 -148.2567)" gradientUnits="userSpaceOnUse">
					<stop  offset="0" style="stop-color:#005BA7"/>
					<stop  offset="1" style="stop-color:#14387F"/>
				</radialGradient>
				<path style="fill:url(#SVGID_00000070841189543564049420000011689116504183230378_);" d="M333.78,370.583
					c1.056-3.355,6.348-5.376,8.495-3.916c2.204,1.463,0.96,4.601-0.01,5.924c-0.963,1.28-3.456,2.656-1.747,3.146
					c1.747,0.508,6.58-4.048,6.955-7.58c0.394-3.566-1.174-5.206-5.544-6.503c-4.403-1.305-11.427,0.157-15.059,2.902
					c-0.688,0.473-1.424,1.138-2.204,1.905c-1.533,1.735-3.914,4.807-4.791,8.548c-0.511,2.103-0.096,4.376,0.742,6.529
					c0,0,0,0,0,0.053c2.417,5.617,6.585,9.901,8.466,13.443c0,0,0.038,0,0.038-0.043c0.701,1.331,1.105,2.689,0.952,4.17
					c-0.404,3.576-4.094,5.792-6.687,5.582c-2.598-0.211-4.236-1.585-4.154-3.566c0.061-2.016,1.455-3.225,2.291-4.014
					c0.965-0.841,3.354-2.024,1.363-2.209c-1.955-0.259-7.361,0.789-10.292,4.908c-2.902,4.111-0.45,8.768,2.756,10.91
					c3.164,2.156,7.577,2.69,12.715,2.357c7.453-0.5,17.688-6.966,18.429-14.586c0.798-7.629-3.664-13.396-7.138-17.418
					C335.952,377.03,332.78,373.932,333.78,370.583z"/>
				<g>
					
						<radialGradient id="SVGID_00000065060941402803433900000015154346431230283439_" cx="403.7267" cy="557.6614" r="159.3548" gradientTransform="matrix(1 0 0 1 -144.2148 -186.7539)" gradientUnits="userSpaceOnUse">
						<stop  offset="0" style="stop-color:#005BA7"/>
						<stop  offset="1" style="stop-color:#14387F"/>
					</radialGradient>
					<path style="fill:url(#SVGID_00000065060941402803433900000015154346431230283439_);" d="M184.03,368.998
						c-0.97,0.13-1.768,0.061-2.321-0.333c-1.189-0.859-1.392-2.892-1.059-5.389c0.808-4.434,2.295-9.878,4.531-16.212
						c2.055-5.844,5.462-12.839,5.92-13.807c0.445-0.942,1.607-2.455,0.089-3.51c-1.541-1.016-8.806-3.284-15.996-3.867
						c-9.355-0.795-20.806,1.011-30.428,10.721c-6.786,6.889-10.772,15.204-11.831,24.704c-0.525,4.739,0.158,8.342,2.004,10.673
						c1.605,1.928,4.022,3.032,7.276,3.37c7.844,0.762,15.704-4.124,24.797-15.323l1.617-1.928l-1.884,9.709l-0.158,1.447
						c-0.602,5.236,1.775,7.842,7.623,8.786c7.545,1.209,10.684-4.041,10.491-8.19C184.686,369.514,184.596,368.927,184.03,368.998z
						 M177.324,335.285c-2.964,5.971-9.863,15.839-15.244,21.966c-5.297,5.98-7.821,7.742-11.059,8.575
						c-3.22,0.789-3.618-4.241-3.42-6.503c0.602-5.341,1.956-11.593,7.618-17.149c11.666-11.392,21.41-7.949,21.778-7.817
						l0.685,0.238L177.324,335.285z"/>
					<g>
						
							<radialGradient id="SVGID_00000152961075288854551950000013080868430293558918_" cx="478.9627" cy="647.9823" r="198.8842" gradientTransform="matrix(0.8012 0 0 0.8012 -124.2355 -148.2567)" gradientUnits="userSpaceOnUse">
							<stop  offset="0" style="stop-color:#005BA7"/>
							<stop  offset="1" style="stop-color:#14387F"/>
						</radialGradient>
						<path style="fill:url(#SVGID_00000152961075288854551950000013080868430293558918_);" d="M257.377,390.213
							c-1.714-0.148-3.124-0.596-2.582-2.804c0.558-2.217,4.619-11.392,11.326-24.651c1.999-4.03,3.167-6.783,3.606-8.228
							c1.328-4.969-0.236-8.035-4.767-9.271c-6.278-1.719-15.12,3.075-26.464,14.48c0.379-1.165,1.297-3.098,2.662-5.823
							c1.224-2.418,2.049-4.399,2.486-5.887c1.447-5.32-0.087-8.528-4.528-9.79c-6.204-1.673-14.987,3.19-26.291,14.531l3.829-6.986
							c1.523-2.855,2.602-5.289,3.098-7.238c0.84-3.133-0.496-5.125-3.995-6.077c-2.196-0.614-5.909-0.082-7.671,2.309
							c-1.861,2.387-2.613,4.789-4.022,8.194c-1.095,2.595-4.8,10.945-8.398,17.053c0,0-6.278,10.646-7.742,15.323
							c-0.954,3.009,0.762,5.086,4.784,6.244c1.183,0.272,2.148,0.666,3.666,0.585c1.57-0.069,3.017-1.437,3.867-3.499
							c0.823-2.065,0.823-2.237,1.788-3.905c2.329-3.989,6.699-9.78,12.548-15.564c8.261-8.236,13.18-12.063,14.828-11.625
							c0.617,0.145,0.794,0.688,0.554,1.587c-0.747,2.786-5.054,11.615-12.911,26.539c-1.806,3.471-2.87,5.759-3.154,6.879
							c-0.808,2.928,0.658,4.899,4.335,5.863c1.681,0.447,3.571,0.864,5.287,0.841c1.716,0,2.083-2.58,2.41-3.68
							c1.302-4.715,6.029-11.225,14.271-19.482c8.226-8.175,13.104-12.075,14.747-11.663c0.589,0.167,0.754,0.696,0.518,1.603
							c-0.28,1.18-3.286,7.379-8.87,18.578c-2.54,4.965-4.262,9.289-5.237,12.887c-0.059,0.233-0.35,1.531-0.35,1.531
							c-0.548,3.171-0.261,6.181,6.351,7.293c2.999,0.54,7.662-0.432,10.345-5.082C257.894,390.959,257.968,390.266,257.377,390.213
							z"/>
						<g>
							
								<radialGradient id="SVGID_00000152238292348537741660000008080143679120029097_" cx="403.7211" cy="557.6586" r="159.3518" gradientTransform="matrix(1 0 0 1 -144.2148 -186.7539)" gradientUnits="userSpaceOnUse">
								<stop  offset="0" style="stop-color:#005BA7"/>
								<stop  offset="1" style="stop-color:#14387F"/>
							</radialGradient>
							<path style="fill:url(#SVGID_00000152238292348537741660000008080143679120029097_);" d="M304.737,356.331
								c-8.053-1.74-16.107,0.241-23.512,5.577c-7.982,5.802-13.382,13.622-16.088,23.564c-0.238,0.833-1.359,6.493-0.071,10.595
								c1.296,4.101,5.328,7.58,11.56,9.305c4.091,1.15,10.191,1.986,19.195-0.789c5.209-1.572,8.951-5.155,10.109-6.668
								c0.609-0.797,0.638-1.333,0.394-1.635c-0.219-0.267-0.627-0.505-2.822,0.574c-2.103,1.029-5.818,2.164-8.302,2.672
								c-9.211,1.894-13.781-2.855-14.665-5.188c-0.92-2.375-0.294-4.04-0.294-4.04c9.988-2.812,21.766-5.976,30.113-14.038
								c3.105-2.931,4.352-5.968,4.479-8.746C315.034,362.847,312.782,358.096,304.737,356.331z M302.485,366.667
								c-0.302,4.162-2.418,7.553-8.075,11.024c-3.36,2.003-7.788,4.172-12.786,6.151c4.596-15.363,10.617-22.461,18.114-21.361
								C301.413,363.144,302.66,364.283,302.485,366.667z"/>
						</g>
					</g>
				</g>
				
					<radialGradient id="SVGID_00000037651750201997938140000005139070698801481108_" cx="478.9597" cy="647.9822" r="198.8806" gradientTransform="matrix(0.8012 0 0 0.8012 -124.2355 -148.2567)" gradientUnits="userSpaceOnUse">
					<stop  offset="0" style="stop-color:#005BA7"/>
					<stop  offset="1" style="stop-color:#14387F"/>
				</radialGradient>
				<path style="fill:url(#SVGID_00000037651750201997938140000005139070698801481108_);" d="M110.158,327.092
					c4.698-7.72,9.828-11.217,15.333-10.447c3.682,0.531,6.621,2.968,8,5.434c1.343,2.489,4.39,4.635,6.979,2.564
					c2.453-2.001,3.314-3.684,3.613-5.228c0.719-4.525-3.613-7.443-13.086-8.781c-10.411-1.453-20.097,2.323-29.015,11.278
					c-8.941,8.974-14.478,19.656-16.572,31.921c-0.676,3.865-0.676,7.075,0.513,10.411c1.183,3.382,3.611,9.233,11.344,10.538
					c7.704,1.28,13.055,0.244,17.811-1.526c4.652-1.81,7.903-5.247,9.32-7.633c1.844-3.006,6.104-13.066,7.384-15.702
					c1.244-2.695-0.221-5.696-2.008-5.999c-1.823-0.332-2.978-0.508-6.263-0.797c-3.245-0.304-6.782,0.487-8.474,1.476
					c-1.702,1.003-3.073,2.674-3.197,4.093c-0.188,1.174-0.036,2.628,2.375,2.103c2.445-0.569,4.756,0.264,4.756,0.264
					c-1.598,4.345-3.893,9.464-4.962,11.557c-1.114,2.064-4.094,5.008-8.553,4.523c-4.46-0.473-6.239-5.487-4.705-14.495
					C102.311,343.378,105.43,334.82,110.158,327.092z"/>
			</g>
		</g>
		<g>
			<path style="fill:#FFFFFF;" d="M395.656,402.095c-0.635-1.204-0.78-2.347-0.937-3.504c-0.135-1.026-0.154-1.933-0.203-2.664
				c-0.279-4.865,0.314-11.537,1.727-19.797c1.156-6.643,3.489-14.152,3.928-15.406c0.464-1.249-0.68-2.41-2.174-2.709
				c-8.198-1.664-29.755-3.903-42.766,14.416c-5.458,7.765-8.009,16.536-7.532,25.932c0.259,4.723,1.513,8.106,3.738,10.059
				c1.796,1.63,4.373,2.344,7.577,2.151c7.742-0.521,14.63-6.549,21.676-18.975l1.214-2.069l-0.259,9.736l0.114,1.455
				c0.238,5.152,2.992,7.44,8.825,7.334c2.098-0.048,5.419-0.973,6.318-1.919C397.82,405.173,396.288,403.28,395.656,402.095z
				 M386.74,365.887c-1.945,6.31-7.045,17.009-11.283,23.861c-4.202,6.661-6.413,8.843-9.411,10.132
				c-3.04,1.293-4.251-3.54-4.389-5.811c-0.246-5.279,0.043-11.567,4.662-17.842c9.503-13.025,19.533-11.224,19.896-11.155
				l0.732,0.114L386.74,365.887z"/>
			<path style="fill:#FFFFFF;" d="M331.352,366.561c1.061-3.36,6.344-5.379,8.497-3.918c2.207,1.46,0.958,4.606-0.015,5.924
				c-0.958,1.28-3.451,2.656-1.744,3.139c1.744,0.516,6.582-4.042,6.95-7.58c0.394-3.56-1.173-5.208-5.533-6.496
				c-4.413-1.305-11.442,0.15-15.066,2.902c-0.696,0.473-1.424,1.14-2.212,1.912c-1.529,1.725-3.903,4.805-4.776,8.543
				c-0.508,2.103-0.102,4.371,0.736,6.527c0,0,0,0,0,0.053c2.41,5.619,6.58,9.902,8.466,13.443c0,0,0.038,0,0.038-0.043
				c0.701,1.331,1.105,2.691,0.952,4.167c-0.404,3.58-4.097,5.802-6.687,5.587c-2.593-0.21-4.233-1.587-4.149-3.567
				c0.058-2.021,1.447-3.23,2.288-4.015c0.958-0.841,3.355-2.024,1.358-2.207c-1.948-0.264-7.356,0.789-10.284,4.903
				c-2.905,4.114-0.46,8.776,2.751,10.914c3.164,2.156,7.568,2.692,12.715,2.359c7.455-0.5,17.69-6.968,18.429-14.587
				c0.807-7.628-3.664-13.392-7.133-17.416C333.521,372.995,330.362,369.908,331.352,366.561z"/>
			<g>
				<path style="fill:#FFFFFF;" d="M181.603,364.98c-0.972,0.132-1.768,0.058-2.329-0.342c-1.184-0.863-1.384-2.888-1.049-5.386
					c0.803-4.433,2.295-9.871,4.522-16.211c2.06-5.851,5.462-12.839,5.93-13.807c0.447-0.939,1.6-2.459,0.089-3.515
					c-1.542-1.019-8.814-3.281-15.998-3.868c-9.355-0.789-20.805,1.016-30.437,10.722c-6.78,6.892-10.767,15.213-11.824,24.704
					c-0.521,4.746,0.16,8.345,2.004,10.678c1.603,1.927,4.02,3.032,7.278,3.365c7.841,0.762,15.698-4.119,24.795-15.32l1.618-1.927
					l-1.887,9.701l-0.158,1.453c-0.599,5.237,1.775,7.847,7.624,8.786c7.538,1.206,10.678-4.04,10.491-8.197
					C182.256,365.493,182.167,364.897,181.603,364.98z M174.896,331.254c-2.963,5.986-9.861,15.852-15.242,21.971
					c-5.298,5.985-7.826,7.742-11.059,8.578c-3.223,0.798-3.619-4.241-3.421-6.509c0.604-5.333,1.955-11.595,7.618-17.143
					c11.664-11.392,21.412-7.948,21.778-7.816l0.683,0.236L174.896,331.254z"/>
				<g>
					<path style="fill:#FFFFFF;" d="M254.952,386.192c-1.721-0.158-3.124-0.597-2.585-2.814c0.554-2.212,4.624-11.392,11.331-24.642
						c1.991-4.032,3.161-6.783,3.598-8.23c1.328-4.964-0.233-8.035-4.762-9.271c-6.278-1.717-15.119,3.077-26.464,14.479
						c0.371-1.166,1.29-3.095,2.662-5.82c1.224-2.428,2.047-4.399,2.478-5.897c1.45-5.312-0.081-8.519-4.528-9.78
						c-6.196-1.683-14.98,3.194-26.291,14.53l3.837-6.984c1.519-2.857,2.603-5.294,3.093-7.23c0.846-3.146-0.49-5.134-3.987-6.085
						c-2.199-0.609-5.91-0.084-7.676,2.309c-1.862,2.39-2.613,4.792-4.027,8.194c-1.091,2.598-4.797,10.945-8.39,17.052
						c0,0-6.282,10.65-7.751,15.32c-0.944,3.014,0.772,5.091,4.787,6.247c1.183,0.272,2.151,0.667,3.67,0.587
						c1.567-0.074,3.016-1.437,3.868-3.501c0.828-2.06,0.828-2.23,1.778-3.905c2.336-3.987,6.707-9.784,12.553-15.572
						c8.261-8.228,13.185-12.053,14.823-11.615c0.624,0.135,0.794,0.688,0.548,1.582c-0.741,2.784-5.041,11.618-12.895,26.544
						c-1.816,3.471-2.872,5.749-3.159,6.879c-0.805,2.928,0.661,4.898,4.337,5.866c1.681,0.444,3.571,0.856,5.28,0.83
						c1.722,0,2.09-2.568,2.41-3.669c1.308-4.718,6.036-11.234,14.275-19.485c8.228-8.175,13.108-12.085,14.751-11.664
						c0.587,0.168,0.749,0.693,0.516,1.605c-0.284,1.174-3.286,7.379-8.87,18.578c-2.545,4.969-4.266,9.281-5.236,12.887
						c-0.058,0.233-0.348,1.529-0.348,1.529c-0.548,3.172-0.269,6.178,6.343,7.296c3.006,0.53,7.674-0.435,10.354-5.079
						C255.472,386.927,255.541,386.244,254.952,386.192z"/>
					<g>
						<path style="fill:#FFFFFF;" d="M302.3,352.312c-8.045-1.734-16.107,0.236-23.502,5.574
							c-7.984,5.802-13.387,13.617-16.09,23.559c-0.246,0.833-1.358,6.498-0.069,10.6c1.297,4.099,5.327,7.58,11.559,9.307
							c4.088,1.146,10.196,1.978,19.2-0.795c5.206-1.564,8.956-5.147,10.1-6.655c0.609-0.807,0.643-1.338,0.398-1.648
							c-0.218-0.262-0.63-0.5-2.821,0.574c-2.113,1.037-5.818,2.172-8.299,2.672c-9.21,1.889-13.786-2.852-14.67-5.188
							c-0.916-2.37-0.294-4.04-0.294-4.04c9.985-2.809,21.768-5.971,30.115-14.033c3.103-2.933,4.347-5.96,4.479-8.748
							C312.611,358.815,310.354,354.074,302.3,352.312z M300.059,362.644c-0.308,4.172-2.42,7.555-8.076,11.016
							c-3.36,2.007-7.786,4.18-12.786,6.153c4.597-15.354,10.618-22.461,18.114-21.352
							C298.99,359.122,300.234,360.262,300.059,362.644z"/>
					</g>
				</g>
			</g>
			<path style="fill:#FFFFFF;" d="M107.726,323.07c4.701-7.722,9.828-11.217,15.336-10.447c3.682,0.531,6.625,2.963,8,5.429
				c1.336,2.486,4.388,4.632,6.979,2.564c2.451-1.998,3.317-3.68,3.614-5.232c0.716-4.512-3.614-7.445-13.085-8.779
				c-10.411-1.45-20.1,2.326-29.018,11.295c-8.937,8.966-14.477,19.648-16.577,31.908c-0.673,3.865-0.673,7.072,0.518,10.409
				c1.18,3.383,3.611,9.229,11.344,10.543c7.699,1.28,13.055,0.246,17.812-1.523c4.657-1.811,7.895-5.251,9.319-7.643
				c1.846-3.006,6.107-13.057,7.377-15.699c1.249-2.687-0.216-5.693-2.003-6c-1.819-0.328-2.981-0.508-6.259-0.792
				c-3.246-0.312-6.79,0.487-8.481,1.477c-1.701,0.998-3.071,2.669-3.192,4.084c-0.186,1.181-0.035,2.638,2.374,2.111
				c2.446-0.571,4.757,0.262,4.757,0.262c-1.6,4.347-3.893,9.465-4.96,11.55c-1.115,2.077-4.099,5.011-8.555,4.53
				c-4.46-0.473-6.247-5.486-4.711-14.493C99.881,339.36,103.003,330.79,107.726,323.07z"/>
		</g>
	</g>
	
		<radialGradient id="SVGID_00000128481503238573733250000017982962203841019548_" cx="265.1034" cy="645.5279" r="53.6673" gradientTransform="matrix(1 0 0 1 -144.2148 -186.7539)" gradientUnits="userSpaceOnUse">
		<stop  offset="0" style="stop-color:#005CA8"/>
		<stop  offset="1" style="stop-color:#102D69"/>
	</radialGradient>
	<path style="fill:url(#SVGID_00000128481503238573733250000017982962203841019548_);" d="M133.113,403.153
		c-57.328-6.552-77.66,1.627-83.209,9.781c-5.539,8.17,6.399,13.744,11.28,15.155c7.883,2.375,18.932,5.013,32.489,7.238
		c14.078,1.28,31.915,1.889,54.512,1.166c33.639-1.079,57.655-5.68,73.743-10.209C190.137,416.145,159.928,406.214,133.113,403.153z
		"/>
	<g>
		
			<radialGradient id="SVGID_00000062150773081097338000000006071803850231113122_" cx="556.2101" cy="412.0282" r="24.9473" gradientTransform="matrix(1.0385 0 0 1.1092 -159.8711 -201.6807)" gradientUnits="userSpaceOnUse">
			<stop  offset="0" style="stop-color:#CD7D00"/>
			<stop  offset="1" style="stop-color:#FFCD44"/>
		</radialGradient>
		<path style="fill:url(#SVGID_00000062150773081097338000000006071803850231113122_);" d="M420.754,233.745
			c0.605-0.639,0.342-1.747,0.098-2.059c-3.293-4.185-4.764-10.036-6.678-10.036c-2.507,0-5.539,10.627-5.556,18.446
			c0,0.318,0.011,0.63,0.026,0.94c0.209,6.663,4.21,11.936,7.598,15.232c0.196,0.191,0.546,0.533,0.876,0.226
			c0.114-0.13,0.214-0.262,0.332-0.389c0.368-0.376,0.35-0.864,0.35-1.061c-0.424-5.652-0.647-12.398,0.237-15.857
			C418.511,237.324,419.564,235.445,420.754,233.745z"/>
		
			<radialGradient id="SVGID_00000102524031049029467180000012457113877797037723_" cx="565.212" cy="390.4295" r="29.5078" gradientTransform="matrix(1.0385 0 0 1.1092 -159.8711 -201.6807)" gradientUnits="userSpaceOnUse">
			<stop  offset="0" style="stop-color:#CD7D00"/>
			<stop  offset="1" style="stop-color:#FFCD44"/>
		</radialGradient>
		<path style="fill:url(#SVGID_00000102524031049029467180000012457113877797037723_);" d="M426.836,206.36
			c-3.532-3.992-7.527-11.039-9.535-11.039l0,0l-0.096,0.005c-1.643,0.203-2.06,6.285-2.06,12.681c0,2.402,0.053,4.851,0.127,7.047
			c0.148,4.672,5.078,9.878,8.794,13.174c0.272,0.242,0.963,0.515,1.564-0.046c0.435-0.399,1.009-0.927,1.679-1.498
			c0.749-0.516,0.416-1.565,0.31-2.166c-0.609-3.405-1.302-8.123-1.305-11.786c0.021-1.978,0.165-3.621,0.899-4.962
			C427.562,207.109,427.077,206.622,426.836,206.36z"/>
		
			<radialGradient id="SVGID_00000157298854512026629990000008378137181337982644_" cx="574.2126" cy="318.7953" r="20.3505" gradientTransform="matrix(1.0385 0 0 1.1092 -159.8711 -201.6807)" gradientUnits="userSpaceOnUse">
			<stop  offset="0" style="stop-color:#CD7D00"/>
			<stop  offset="1" style="stop-color:#FFCD44"/>
		</radialGradient>
		<path style="fill:url(#SVGID_00000157298854512026629990000008378137181337982644_);" d="M430.175,146.658
			c1.389-3.586,3.015-5.249,4.969-5.249c2.191,0,4.376,1.748,6.608,5.313c0.28,0.435,0.937,0.435,0.98-0.099
			c0.177-1.785,0.325-3.969,0.325-6.216c0-3.045-0.272-6.178-1.095-8.523c-0.902-2.558-9.157-9.465-11.948-9.465l-0.412,0.068
			c-2.265,0.827-2.611,6.178-4.413,13.034c-0.153,0.566-0.219,1.143-0.219,1.73c0,3.205,2.016,6.679,4.066,9.408
			C429.299,147.002,429.944,147.266,430.175,146.658z"/>
		
			<radialGradient id="SVGID_00000116236956097057872130000018219309291199077761_" cx="572.7711" cy="340.3903" r="22.1557" gradientTransform="matrix(1.0385 0 0 1.1092 -159.8711 -201.6807)" gradientUnits="userSpaceOnUse">
			<stop  offset="0" style="stop-color:#CD7D00"/>
			<stop  offset="1" style="stop-color:#FFCD44"/>
		</radialGradient>
		<path style="fill:url(#SVGID_00000116236956097057872130000018219309291199077761_);" d="M432.323,171.764
			c1.612-2.202,3.223-4.04,4.337-4.634c0.439-0.236,0.902-0.353,1.394-0.353c1.077,0,2.559,0.482,4.863,3.618
			c0.302,0.53,0.683,0.267,0.741,0c0.627-2.636,1.135-5.896,1.135-9.721c0-2.705-5.591-16.661-9.648-16.661
			c-2.865,0-5.863,14.022-5.863,18.708c0,2.217,1.156,5.798,2.37,8.972C431.744,171.913,432.12,172.043,432.323,171.764z"/>
		
			<radialGradient id="SVGID_00000070801978190452818120000006186463849057128856_" cx="574.5663" cy="363.0732" r="25.2072" gradientTransform="matrix(1.0385 0 0 1.1092 -159.8711 -201.6807)" gradientUnits="userSpaceOnUse">
			<stop  offset="0" style="stop-color:#CD7D00"/>
			<stop  offset="1" style="stop-color:#FFCD44"/>
		</radialGradient>
		<path style="fill:url(#SVGID_00000070801978190452818120000006186463849057128856_);" d="M446.938,183.919
			c-1.673-5.597-6.773-14.533-8.885-14.533l-0.298,0.074c-1.876,0.996-7.685,9.51-8.058,13.027l-0.031,0.568
			c0.015,2.926,1.711,10.026,2.775,14.229c0.243,1.224,0.683,0.356,0.732,0.29c0.244-0.365,0.49-0.724,0.744-1.062
			c0.894-1.191,1.757-2.192,2.717-2.854c0.543-0.374,1.153-0.66,1.872-0.673c0.736,0.007,1.363,0.335,1.871,0.754
			c0.525,0.422,0.972,0.962,1.401,1.587c0.454,0.657,0.878,1.439,1.288,2.28c0.119,0.246,0.383,0.954,0.912-0.327
			c1.201-2.877,3.278-7.253,3.278-10.981C447.255,185.456,447.15,184.649,446.938,183.919z"/>
		
			<radialGradient id="SVGID_00000029020150333845639320000017871301333807372161_" cx="577.45" cy="394.0295" r="27.2524" gradientTransform="matrix(1.0385 0 0 1.1092 -159.8711 -201.6807)" gradientUnits="userSpaceOnUse">
			<stop  offset="0" style="stop-color:#CD7D00"/>
			<stop  offset="1" style="stop-color:#FFCD44"/>
		</radialGradient>
		<path style="fill:url(#SVGID_00000029020150333845639320000017871301333807372161_);" d="M458.177,199.522l-0.165,0.026
			c-2.179,0.701-4.703,5.205-9.908,9.169c-0.219,0.168-0.604,0.713-0.272,1.805c0.272,0.846,0.386,1.749,0.386,2.681
			c-0.013,2.559-0.802,5.371-1.871,8.073c-1.066,2.692-2.397,5.259-3.593,7.186c-0.794,1.265-0.399,2.319-0.233,2.978
			c0.378,1.498,0.691,3.149,0.955,4.845c0.053,0.351,0.333,0.899,1.254,0.162c2.339-1.853,5.407-4.743,9.249-8.838
			c3.952-4.238,5.665-14.675,5.665-21.562C459.645,202.241,459.134,199.522,458.177,199.522z"/>
		
			<radialGradient id="SVGID_00000069377314015507066540000004064582578756835466_" cx="572.7694" cy="388.6288" r="26.2173" gradientTransform="matrix(1.0385 0 0 1.1092 -159.8711 -201.6807)" gradientUnits="userSpaceOnUse">
			<stop  offset="0" style="stop-color:#CD7D00"/>
			<stop  offset="1" style="stop-color:#FFCD44"/>
		</radialGradient>
		<path style="fill:url(#SVGID_00000069377314015507066540000004064582578756835466_);" d="M445.774,213.202
			c0-0.711-0.087-1.334-0.251-1.847c-1.178-3.712-3.043-9.698-4.929-13.182c-0.622-1.156-1.254-2.019-1.686-2.357
			c0,0-0.558-0.365-1.1,0.082c-0.28,0.244-0.564,0.521-0.981,0.995c-0.851,0.947-1.815,2.334-2.743,3.847
			c-1.876,3.035-3.672,6.547-4.82,8.444c-0.262,0.36-0.538,1.783-0.511,3.547c-0.005,3.253,0.643,7.691,1.222,11.011
			c0.04,0.266,0.284,0.68,0.709,0.399c1.692-1.12,3.532-1.942,5.092-1.942c1.892,0,3.477,1.267,4.784,3.792
			c0.167,0.346,0.566,0.34,0.675,0.148c0.592-1.018,1.211-2.169,1.796-3.413C444.556,219.533,445.795,215.828,445.774,213.202z"/>
		
			<radialGradient id="SVGID_00000041262825559188574190000011381942243983297438_" cx="576.3715" cy="417.7875" r="31.2012" gradientTransform="matrix(1.0385 0 0 1.1092 -159.8711 -201.6807)" gradientUnits="userSpaceOnUse">
			<stop  offset="0" style="stop-color:#CD7D00"/>
			<stop  offset="1" style="stop-color:#FFCD44"/>
		</radialGradient>
		<path style="fill:url(#SVGID_00000041262825559188574190000011381942243983297438_);" d="M455.714,231.196L455.714,231.196
			l-0.223,0.054c-3.373,1.532-6.729,5.538-10.442,8.324c-0.353,0.262-1.064,0.932-0.958,2.194c0.087,1.052,0.124,2.077,0.124,3.02
			c0,3.606-2.481,8.769-7.603,15.777c-0.259,0.365-0.732,0.863-1.082,1.196c-0.416,0.389-0.79,0.648-0.569,1.333
			c0.096,0.341,0.543,0.868,1.542,0.482c2.243-0.807,5.234-2.182,9.178-4.543l0.14-0.089l0.391-0.251l0.271-0.173l0.548-0.386
			l0.053-0.04l0.188-0.143l0.193-0.15C457.885,249.668,458.086,231.196,455.714,231.196z"/>
		
			<radialGradient id="SVGID_00000123432405727636578900000008409343799778417063_" cx="566.2919" cy="406.9863" r="19.7051" gradientTransform="matrix(1.0385 0 0 1.1092 -159.8711 -201.6807)" gradientUnits="userSpaceOnUse">
			<stop  offset="0" style="stop-color:#CD7D00"/>
			<stop  offset="1" style="stop-color:#FFCD44"/>
		</radialGradient>
		<path style="fill:url(#SVGID_00000123432405727636578900000008409343799778417063_);" d="M420.606,252.594
			c2.387-2.514,4.574-4.495,5.977-5.203c0.719-0.36,1.429-0.548,2.12-0.548c2.375,0,4.018,1.866,4.909,5.554
			c0.384,1.607,0.63,3.545,0.841,5.561c0.043,0.386,0.087,1.204,0.652,0.429c3.413-4.711,6.672-10.161,6.672-13.599
			c0-7.149-2.286-19.982-6.001-19.982c-3.712,0-13.873,9.165-15.384,15.064c-0.386,1.498-0.526,3.781-0.526,6.353
			c0,1.93,0.082,4.027,0.206,6.079C420.045,253.046,420.449,252.766,420.606,252.594z"/>
		
			<radialGradient id="SVGID_00000085244280196962565940000014427381225420663212_" cx="570.6084" cy="362.3519" r="27.2314" gradientTransform="matrix(1.0385 0 0 1.1092 -159.8711 -201.6807)" gradientUnits="userSpaceOnUse">
			<stop  offset="0" style="stop-color:#CD7D00"/>
			<stop  offset="1" style="stop-color:#FFCD44"/>
		</radialGradient>
		<path style="fill:url(#SVGID_00000085244280196962565940000014427381225420663212_);" d="M426.932,179.277
			c-1.445-0.762-2.646-1.917-3.771-2.968c-2.976-2.649-4.856-11.689-5.737-16.95c-0.167-1.222-0.337-2.455-0.543-3.68
			c-0.018-0.12-0.021-0.188-0.021-0.188l-0.005,0.02c-3.269-19.902-10.511-39.701-18.424-56.564
			c-0.264-0.571-0.912-0.795-1.442-0.515c-0.534,0.287-0.746,0.978-0.482,1.546c9.779,20.805,18.009,51.098,19.37,75.225v0.002
			c-0.02,0.36,0.058,1.153,0.058,1.562c0,2.689,0.328,5.889,0.912,9.395c0.953,5.716,8.315,13.094,11.987,16.466
			c0.304,0.282,0.815,0.744,1.11,0.282c0.241-0.429,0.475-0.858,0.731-1.298c0.279-0.468,0.145-0.825,0.087-1.052
			c-1.132-4.193-3.646-14.827-3.492-18.365C427.318,181.08,427.678,179.661,426.932,179.277z"/>
		
			<radialGradient id="SVGID_00000100358054392574418440000001194213072341635483_" cx="568.4482" cy="340.3939" r="23.1723" gradientTransform="matrix(1.0385 0 0 1.1092 -159.8711 -201.6807)" gradientUnits="userSpaceOnUse">
			<stop  offset="0" style="stop-color:#CD7D00"/>
			<stop  offset="1" style="stop-color:#FFCD44"/>
		</radialGradient>
		<path style="fill:url(#SVGID_00000100358054392574418440000001194213072341635483_);" d="M415.786,127.281
			c1.28,3.898,5.836,18.4,6.607,29.254c0.106,2.248,0.168,4.616,0.168,6.961c0,6.841,3.863,9.871,6.826,11.202
			c0.279,0.125,0.942,0.365,0.643-0.398c-1.423-3.698-3.164-8.027-3.164-11.059c0-1.536,0.259-4.207,0.696-6.778
			c0.37-1.26-0.572-2.295-0.665-2.45c-0.272-0.478-0.868-1.575-1.34-2.775c-2.06-5.317-4.868-15.67-4.868-15.67l0.046,0.304
			c-6.072-20.826-15.303-40.346-22.867-54.349c-0.299-0.554-0.96-0.741-1.468-0.427c-0.526,0.32-0.693,1.021-0.399,1.572
			C402.378,94.468,409.971,110.211,415.786,127.281z"/>
		
			<radialGradient id="SVGID_00000057829087452390062210000009024244392554931601_" cx="582.4919" cy="345.7938" r="29.6983" gradientTransform="matrix(1.0385 0 0 1.1092 -159.8711 -201.6807)" gradientUnits="userSpaceOnUse">
			<stop  offset="0" style="stop-color:#CD7D00"/>
			<stop  offset="1" style="stop-color:#FFCD44"/>
		</radialGradient>
		<path style="fill:url(#SVGID_00000057829087452390062210000009024244392554931601_);" d="M447.15,135.374
			c0.442,1.841,1.98,8.852,1.262,15.122c-0.18,1.648-0.54,3.218-1.095,4.66c-0.167,0.303-0.32,0.594-0.477,0.874
			c-0.158,0.264-0.386,1.016-0.153,1.904c0.398,1.465,0.543,3.238,0.543,3.956c0,4.586-0.685,7.27-1.473,10.203
			c-0.021,0.079,0,0.629,0.04,0.817c0.298,1.552,0.642,2.829,1.013,3.558c0.084,0.147,0.447,0.274,0.792,0.089
			c1.785-0.98,7.174-4.587,7.182-12.451c0-0.675-0.043-1.369-0.124-2.102c-0.445-9.759-4.696-24.614-4.696-24.614
			c-0.083-0.287-0.135-0.49-0.193-0.657c-6.062-22.992-18.118-43.219-26.398-56.878c-0.312-0.536-0.99-0.691-1.486-0.345
			c-0.498,0.346-0.643,1.061-0.315,1.594C429.601,94.334,441.033,113.623,447.15,135.374z"/>
		
			<radialGradient id="SVGID_00000017479363809641918710000001064880360890685858_" cx="570.6086" cy="297.558" r="16.7909" gradientTransform="matrix(1.0385 0 0 1.1092 -159.8711 -201.6807)" gradientUnits="userSpaceOnUse">
			<stop  offset="0" style="stop-color:#CD7D00"/>
			<stop  offset="1" style="stop-color:#FFCD44"/>
		</radialGradient>
		<path style="fill:url(#SVGID_00000017479363809641918710000001064880360890685858_);" d="M396.779,63.109
			c2.085,2.92,9.271,13.277,17.039,28.055c6.78,12.84,5.754,20.389,5.754,20.389c-0.15,1.277-0.323,2.615-0.579,4.091
			c-0.053,0.305-0.074,0.61-0.074,0.919c-0.013,3.322,2.765,6.811,5.106,9.168c0.262,0.256,0.889,0.167,0.953-0.1
			c0.79-2.836,1.772-4.83,3.801-5.595c0,0.007-0.01,0-0.015,0.007l0.045-0.02c-0.008,0-0.018,0.01-0.03,0.013
			c0.386-0.145,0.8-0.221,1.236-0.221c1.108,0,2.445,0.528,3.807,1.287c0.302,0.168,0.841,0.191,0.841-0.897
			c0-3.151-0.6-6.686-1.701-9.103c-0.485-1.071-2.689-2.913-5.03-4.439l0.005-0.007c-4.624-3.086-8.952-10.419-10.952-14.122
			c-0.332-0.645-0.665-1.28-0.99-1.912c-0.101-0.186-0.157-0.32-0.157-0.32h-0.008c-9.396-17.906-17.958-29.427-17.979-29.467
			c-0.368-0.495-1.046-0.582-1.511-0.183c-0.465,0.394-0.544,1.117-0.177,1.612C396.169,62.263,396.375,62.547,396.779,63.109z"/>
		
			<radialGradient id="SVGID_00000088853867351609442420000010382531327716787083_" cx="580.3322" cy="364.5121" r="31.2622" gradientTransform="matrix(1.0385 0 0 1.1092 -159.8711 -201.6807)" gradientUnits="userSpaceOnUse">
			<stop  offset="0" style="stop-color:#CD7D00"/>
			<stop  offset="1" style="stop-color:#FFCD44"/>
		</radialGradient>
		<path style="fill:url(#SVGID_00000088853867351609442420000010382531327716787083_);" d="M459.851,167.164
			c0.005-0.361,0.04-0.728,0.04-1.089c0-2.978-0.144-5.953-0.384-8.911c-0.018-0.257-0.023-0.424-0.023-0.424l-0.003,0.008
			c-1.849-22.139-9.693-43.021-14.995-53.638c-0.281-0.559-0.932-0.77-1.455-0.472c-0.521,0.297-0.727,0.995-0.437,1.554
			c5.901,11.804,15.152,37.063,15.143,61.883c0,0.787-0.045,1.57-0.068,2.351c-0.333,2.757-1.231,5.934-3.43,8.251
			c-1.526,1.349-3.182,2.479-4.693,3.588c-1.117,0.561-0.478,2.204-0.281,2.859c1.853,6.217-2.905,15.17-4.343,17.659
			c-0.13,0.313-0.271,0.267-0.027,1.081c0.215,0.691,0.812,2.225,1.262,3.517c0.081,0.223,0.378,0.531,0.965,0.059
			c3.154-2.517,8.852-7.616,10.67-12.707l0.026,0.087c0.079-0.246,0.135-0.534,0.215-0.792c0.053-0.213,0.162-0.424,0.201-0.632
			c0.045-0.162,0.071-0.368,0.096-0.54c0.396-1.697,0.693-3.652,0.917-5.745c0.32-2.649,0.521-5.346,0.521-7.557
			c0-0.026-0.005-0.041-0.005-0.066C459.901,173.914,459.904,170.338,459.851,167.164z"/>
	</g>
	
		<radialGradient id="SVGID_00000012448132279183738000000003591798933573422998_" cx="544.3353" cy="441.1846" r="30.5732" gradientTransform="matrix(1.0385 0 0 1.1092 -159.8711 -201.6807)" gradientUnits="userSpaceOnUse">
		<stop  offset="0" style="stop-color:#CD7D00"/>
		<stop  offset="1" style="stop-color:#FFCD44"/>
	</radialGradient>
	<path style="fill:url(#SVGID_00000012448132279183738000000003591798933573422998_);" d="M413.539,260.956
		c0.302-0.348,0.143-0.798,0.03-0.947c-3.172-4.299-5.048-10.579-6.49-12.149c-0.473-0.729-1.051-0.148-1.051-0.148
		c-4.01,4.289-6.455,15.872-6.455,22.674c-0.003,1.861,0.167,3.365,0.553,4.267c3.067,7.237,5.655,12.295,6.993,14.766
		c0.29,0.551,0.894,0.561,0.986,0.167c0.31-1.288,0.543-2.801,0.543-4.503c0-2.201-0.312-4.172-0.6-6.075
		c-0.477-3.118-0.937-6.062,0.058-9.279C408.701,267.822,410.86,264.486,413.539,260.956z"/>
	
		<radialGradient id="SVGID_00000178888429287593524870000008654328804612727734_" cx="561.2524" cy="448.3843" r="41.2481" gradientTransform="matrix(1.0385 0 0 1.1092 -159.8711 -201.6807)" gradientUnits="userSpaceOnUse">
		<stop  offset="0" style="stop-color:#CD7D00"/>
		<stop  offset="1" style="stop-color:#FFCD44"/>
	</radialGradient>
	<path style="fill:url(#SVGID_00000178888429287593524870000008654328804612727734_);" d="M448.845,260.578
		c-0.369-0.148-0.767,0.106-0.767,0.106c-4.233,2.892-8.334,4.855-11.752,6.164c-0.982,0.32-1.016,1.222-1.003,1.617
		c0.275,7.73-0.889,12.918-3.545,15.739c-1.17,1.245-2.488,2.227-3.891,3.278c-1.857,1.376-3.863,2.9-5.805,5.302
		c-0.317,0.386-0.346,1.135,0.495,0.995c8.202-1.433,15.16-3.844,17.755-6.875c7.375-8.631,9.665-17.368,9.635-22.311
		C449.944,261.28,448.954,260.623,448.845,260.578z"/>
	<g>
		
			<radialGradient id="SVGID_00000017516127093136109200000004883873109660331686_" cx="558.2439" cy="470.18" r="27.4889" gradientTransform="matrix(1 0 0 1 -144.2148 -186.7539)" gradientUnits="userSpaceOnUse">
			<stop  offset="0" style="stop-color:#CD7D00"/>
			<stop  offset="1" style="stop-color:#FFCD44"/>
		</radialGradient>
		<path style="fill:url(#SVGID_00000017516127093136109200000004883873109660331686_);" d="M405.936,315.945
			c3.241-5.109,6.315-10.468,9.175-16.046c0.407-0.78,0.797-1.564,1.186-2.349h0.015c0.122-0.259,0.236-0.487,0.351-0.736
			c0.199-0.394,0.402-0.789,0.585-1.191c4.302-8.169,9.583-9.815,12.812-13.261c2.238-2.397,2.857-7.207,2.857-11.885
			c0-2.542-0.18-5.04-0.386-7.1c-0.661-6.546-0.973-13.929-3.83-13.929c-0.323,0-0.675,0.097-1.067,0.299
			c-3.867,1.955-15.854,16.44-17.204,20.803c-0.345,1.087-0.482,2.169-0.482,3.266c0,3.289,1.14,6.765,1.14,11.265
			c0,4.371-1.311,7.745-2.016,9.271c-0.566,1.082-1.132,2.164-1.717,3.23c-3.778,6.948-7.862,13.578-12.217,19.821
			C399.031,316.996,402.624,316.496,405.936,315.945z"/>
	</g>
</g>
</svg>
