<?xml version="1.0" encoding="UTF-8"?>
<svg id="Layer_1" data-name="Layer 1" xmlns="http://www.w3.org/2000/svg" viewBox="0 0 950 950">
  <defs>
    <style>
      .cls-1 {
        fill: #77b943;
      }

      .cls-1, .cls-2 {
        stroke-width: 0px;
      }

      .cls-2 {
        fill: #010101;
      }
    </style>
  </defs>
  <g id="g2096">
    <path id="path14" class="cls-2" d="M889.66,518.12v-2.35h1.51c.85,0,1.98.07,1.98,1.06,0,1.08-.66,1.28-1.6,1.28h-1.88ZM889.66,519.77h1.04l2.26,4.1h2.54l-2.54-4.27c1.32-.09,2.45-.73,2.45-2.53,0-2.23-1.51-2.95-4.15-2.95h-3.77v9.75h2.17v-4.1ZM900.59,519.01c0-5.73-4.43-9.05-9.42-9.05s-9.42,3.33-9.42,9.05,4.43,9.06,9.42,9.06,9.42-3.34,9.42-9.06M897.95,519.01c0,4.17-3.11,6.97-6.78,6.97v-.03c-3.67.03-6.69-2.77-6.69-6.94s3.01-6.96,6.69-6.96,6.78,2.79,6.78,6.96"/>
    <path id="path16" class="cls-2" d="M555.28,422.07v102.8h29.04v-102.8h-29.04ZM326.89,421.93v102.94h29.29v-78.16h22.69c7.52,0,12.87,1.88,16.5,5.75,4.59,4.89,6.46,12.78,6.46,27.22v45.2h28.38v-56.87c0-40.59-25.87-46.07-51.18-46.07h-52.13ZM602.03,422.08v102.79h47.09c25.09,0,33.27-4.17,42.14-13.53,6.26-6.57,10.3-20.98,10.3-36.74,0-14.44-3.42-27.34-9.39-35.37-10.76-14.36-26.26-17.16-49.38-17.16h-40.74ZM630.83,444.45h12.48c18.11,0,29.82,8.14,29.82,29.23s-11.71,29.24-29.82,29.24h-12.48v-58.47ZM513.42,422.08l-24.23,81.46-23.22-81.46h-31.33l33.15,102.79h41.85l33.42-102.79h-29.63ZM715.06,524.87h29.03v-102.79h-29.03v102.79ZM796.44,422.11l-40.54,102.72h28.63l6.42-18.15h47.93l6.12,18.15h31.09l-40.89-102.72h-38.77ZM815.29,440.85l17.56,48.12h-35.7l18.14-48.12Z"/>
  </g>
  <path id="path2045" class="cls-1" d="M140.96,442.27v-14.67c1.42-.1,2.86-.18,4.32-.22,40.11-1.26,66.42,34.47,66.42,34.47,0,0-28.42,39.47-58.89,39.47-4.39,0-8.32-.71-11.85-1.9v-44.47c15.61,1.89,18.75,8.78,28.14,24.43l20.88-17.61s-15.24-19.99-40.93-19.99c-2.8,0-5.47.2-8.09.48M140.96,393.82v21.91c1.44-.12,2.88-.21,4.32-.26,55.78-1.88,92.12,45.74,92.12,45.74,0,0-41.74,50.76-85.23,50.76-3.98,0-7.71-.37-11.22-.99v13.54c2.99.38,6.1.6,9.34.6,40.46,0,69.73-20.67,98.07-45.12,4.69,3.77,23.93,12.91,27.89,16.92-26.95,22.56-89.74,40.74-125.34,40.74-3.43,0-6.73-.21-9.96-.52v19.03h153.8v-162.36h-153.8ZM140.96,499.42v11.56c-37.43-6.67-47.82-45.58-47.82-45.58,0,0,17.97-19.91,47.82-23.13v12.68s-.04,0-.06,0c-15.66-1.88-27.9,12.75-27.9,12.75,0,0,6.86,24.64,27.96,31.73M74.48,463.72s22.18-32.73,66.48-36.12v-11.87c-49.06,3.93-91.55,45.48-91.55,45.48,0,0,24.06,69.57,91.55,75.93v-12.62c-49.52-6.23-66.48-60.81-66.48-60.81"/>
</svg>