<?xml version="1.0" encoding="UTF-8"?>
<svg id="Layer_1" data-name="Layer 1" xmlns="http://www.w3.org/2000/svg" viewBox="0 0 960 960">
  <defs>
    <style>
      .cls-1, .cls-2 {
        stroke-width: 0px;
      }

      .cls-2 {
        fill: lime;
      }
    </style>
  </defs>
  <path class="cls-2" d="M206.86,575.53c0,.42.14.28-.28.28,0-.98-.14,0,.28-.28Z"/>
  <path class="cls-2" d="M256.81,380.07h.7c1.54.14,2.67,1.26,2.95,2.67.42,1.96-.14.7.84,2.25.84,1.26.7,3.23-.56,4.35-1.54,1.4-3.65,0-7.44,1.68-1.12.56-.7.7-1.4,1.54-.56.7-.98.84-1.68,1.4-1.26.84-1.68,2.1-2.95,2.95-.56.42-1.26.7-1.82,1.12-2.53,1.68-3.09,2.1-6.74,2.1.28,1.26,1.68,3.09,2.25,5.47,1.68,8.14-8,15.01-16.28,7.3-1.26-1.26-2.39-2.81-3.65-4.07-5.05-4.77-7.86-.84-6.45,3.51.56,1.96,1.68,3.51,2.67,5.05s2.1,2.95,3.23,4.49l14.87,16c.7.7,1.12,1.26,1.82,2.1,1.82,1.96,3.65,4.21,5.19,6.45.56.84.98,1.4,1.54,2.25,4.07,6.59,6.45,13.05,3.93,20.91-4.07,13.19-18.52,19.92-31.85,15.43-.7-.28-2.39-.98-2.81-.84l-5.33,2.39c-6.17,2.25-13.61,3.09-20.07,1.26-1.96-.56-4.35-1.82-5.33-2.1-.98,1.68-2.81,3.09-4.49,4.07-7.72,4.91-14.03,4.21-19.08,6.59,2.81,5.33,10.52,6.59,15.01,3.09,1.68-1.4,1.82-3.93,4.07-4.35,6.45-1.12,5.05,9.68-3.09,13.89-5.61,2.81-12.35,2.53-17.82-.56-3.65-1.96-5.33-4.35-6.17-5.05-.84,1.82-1.12,5.05-.42,7.3,2.67,8.28,16.14,5.47,22.73,4.21,7.16-1.4,14.03-3.51,21.19-4.49,3.79-.56,8.56-.84,12.21-.42,6.59.84,13.05,3.65,16.14,9.68,2.39,4.63,2.53,9.12.98,14.03-1.54,4.49-4.21,7.02-8.14,8.98.98,1.4,1.68,1.82,2.25,3.79,1.12,3.37-.14,6.45.28,7.86.42.98.56,1.12.7,2.39.28,2.1-1.68,7.02-2.95,8.56-.84.98-.56.56-1.12,1.96-.7,1.68-1.68,1.96-1.82,3.93-.14.7-.42,1.82-.28,2.53.28,1.54,1.4,2.81.28,4.63-.42.84-1.26,1.54-2.39,1.68h-.84c-.28,0-.56-.14-.84-.28-1.54-.7-.28-.56-2.1-.28-.7.14-1.54-.14-2.1-.56-1.12-.7-1.96-2.39-1.12-4.21s1.4-1.96,1.82-4.07c.14-1.26.42-1.54,0-2.39s-.7-1.26-.7-2.25c-.14-1.68,0-1.12-.56-2.53s-.56-3.37-.7-4.63c-.14-.98-.14-1.96,0-2.95.14-1.82,1.12-2.67,1.96-3.93-1.96.42-4.63-.14-6.31-.7s-3.37-1.82-4.21-3.23c-2.39-3.37-1.96-8.28.56-10.94,5.05-5.33,14.45-3.65,15.15-7.16.56-2.67-1.12-3.79-2.81-4.49-5.89-2.25-20.21,1.68-25.4,2.95-9.68,2.39-15.72,3.93-25.68,3.93-16.98,0-27.92-17.96-19.92-34.24,1.54-3.23,4.07-6.03,6.45-8.28.7-.56,1.68-.98,1.82-1.96.56-3.65-.14-4.21,1.4-9.54,1.12-3.93,2.53-7.16,4.63-10.1.84-1.26,2.25-3.09,3.37-4.07.98-.84,3.09-2.81,4.21-3.09,0-.98-.56-2.25-.7-3.37-1.12-5.61.28-11.65,1.96-16.7.42-1.4,1.12-5.19,1.54-6.17-2.25,0-2.95.28-4.63.98-1.26.7-2.39,1.4-3.23,2.39-5.47,6.74-.84,10.8-.7,12.35.28,1.68-.98,3.09-1.96,3.51-2.81,1.26-5.89-2.39-6.88-3.79-1.54-2.53-2.25-5.19-1.68-8.98.84-6.03,3.93-10.38,8.7-13.61,1.54-.98,5.61-3.09,7.86-3.09-.42-1.68-3.65-3.37-5.19-3.93-2.81-.98-5.61.14-7.16,1.4-3.23,2.67-5.47,6.88-7.02,11.23-3.23,8.98-5.47,18.66-9.26,27.5-1.4,3.37-2.95,6.03-5.05,8.84-1.96,2.67-4.35,4.77-7.16,6.45-9.12,5.33-20.77.42-24.13-7.86-1.12-2.81-1.26-3.93-1.26-7.72-3.09,1.54-7.02-.42-9.26-2.25-3.09-2.53-4.35-.28-7.58-4.77-.42-.7-.98-.98-1.54-1.68-.84-1.12-1.26-2.95-2.25-4.07-1.68-1.82-.14-1.68-2.53-3.65-3.23-2.53-4.63-.98-6.03-3.23-.98-1.82-.42-3.23.84-4.35.42-.28.28-.14.56-.28.98-.84.7-2.25,2.39-3.09,3.79-1.68,4.35,2.81,6.03,4.21.98.84,1.54,1.54,2.95,1.68,1.96.14,2.53.98,4.91,1.4,1.54.28,5.05,2.1,6.31,2.95,1.4.98,1.68,1.82,2.53,3.37,1.12-.84,3.09-6.74,8.84-6.88,5.05-.14,8,2.39,9.26,6.17,2.39,6.74-5.89,16.28.42,17.54,7.3,1.54,13.47-24.13,15.29-30.87.56-1.82,1.26-3.93,1.96-5.75,3.65-10.94,10.24-22.59,23.29-23.15.98,0,1.12-.14,1.68-.14l5.05.7c9.96,2.53,16.42,9.82,18.94,19.64.56,2.1,0,2.81,1.96,3.93,2.81,1.68,5.05,3.93,7.3,6.17,1.96,1.96,3.37,4.35,4.77,6.74,2.1,3.37,3.37,7.86,3.51,11.93,2.53.56,4.49,1.26,6.74,2.53,3.93,2.1,6.74,5.33,9.82,8.42.98.98,3.37,3.93,4.63,4.35.14-.7.56-1.12.84-1.96,1.68-4.91-.98-10.52-5.61-12.49-2.1-.84-3.09-.14-4.49-.56-3.93-1.26-3.37-6.74,3.79-7.44,8.56-.84,15.58,8,16.7,16.14.28,2.53,0,5.19-.56,7.44-.14.7-.42,1.4-.42,2.1,2.25,0,5.33-1.82,6.31-3.09,5.75-6.88-2.95-16.28-7.3-21.47l-4.49-4.77c-2.53-2.53-7.44-8-9.82-10.94-.42-.42-.56-.7-.98-1.12-4.63-6.03-11.51-16.98-6.45-27.08,3.23-6.45,10.38-10.38,17.82-9.4,4.35.56,4.91,2.1,6.59,2.53.7-3.09,2.95-5.05,5.61-6.45,3.65-1.82.98.42,3.65-2.25,1.26-1.26,1.82-1.68,3.79-2.1.84-.14,1.82-.28,2.53-.42,1.82-.28,6.59-.28,8.14-.14.98.14,1.68-.28,2.39-.56,3.37-1.82,3.37-3.79,5.33-3.93h0Z"/>
  <path class="cls-2" d="M209.81,575.95c.14.28.28.14,0,.56l-.28-.56-.98-1.96c-1.12.56-.84.98-1.82,1.54.98-2.81,1.4-.56,2.1-7.86-.56-.7-1.12-.84-1.26-2.1-.28-2.81-1.12-3.37-1.12-5.75,0-1.26-.28-1.82-.14-2.95.14-2.25,1.96-2.81,2.39-4.49,1.54-6.59-10.24-.14-12.35-7.72-2.39-8.84,11.08-7.44,15.29-11.08,2.95-2.39,2.1-7.16-.28-9.4-4.77-4.35-16.56-2.1-22.73-.7-13.05,2.95-33.25,10.38-44.2,1.54-4.35-3.51-8.7-10.38-7.16-19.36.98-6.03,5.75-13.05,10.94-15.86-.42-6.59,1.12-12.21,3.79-17.26,2.25-4.21,6.17-8.98,10.94-10.24-.28-.98-1.12-1.82-1.54-3.23-1.4-3.79-.98-8.28-.14-11.93,1.12-5.05,3.37-9.4,3.37-14.87-.98-1.4-6.88-.42-8.28.14-2.53.98-4.35,2.53-5.61,4.07-1.4,1.82-2.53,3.79-2.95,6.59-.56,3.93.42,4.77,1.54,7.86-.98-.42-2.25-1.96-2.81-2.95-4.07-7.72,3.09-20.77,17.4-20.77,0-3.79-5.75-9.12-10.38-9.96-6.88-1.4-10.8,3.65-13.19,7.02-8.7,12.35-10.52,51.22-31.01,50.93-6.17-.14-10.52-4.07-12.35-8.14-1.26-2.81-1.26-5.47-.56-8.7.84-3.79,2.81-6.31,1.68-7.3-.98.14-1.26.98-1.68,1.82-1.12,2.39-2.81,4.49-5.89,4.91-2.39.28-3.93-.84-5.19-1.82-.7-.56-1.12-1.26-2.1-1.54-2.1-.7-3.51-.14-4.77-2.39-.7-1.12-.98-1.12-1.68-1.96-.56-.7-.7-1.54-1.12-2.53-.56-.98-.98-1.26-1.4-1.96-.98-1.54.42-1.4-1.12-2.53-2.81-2.1-3.23-3.09-6.88-3.79l2.81-.14-.42-2.81c.7,1.96,1.54,2.81,3.23,4.07,4.21,3.51,2.25,1.26,4.77,1.96.98.28,1.4.84,2.81,1.12,1.26.28,1.96.14,2.95.84l2.39,1.26c2.81,1.4,2.25,5.75,5.47,5.61,1.96,0,2.53-2.39,3.51-3.93,1.96-3.09,5.19-5.61,9.54-2.67,3.65,2.53,1.4,8,.42,11.51-1.54,5.05-1.26,8.42,2.81,10.38,7.44,3.51,12.77-8.42,14.87-13.75,5.05-13.75,8.14-34.38,17.82-41.67,6.45-4.77,15.43-5.47,22.73-.84,3.09,1.96,5.33,4.35,7.16,7.58,3.37,5.89,2.53,10.8,3.93,11.65,2.25,1.54,3.23,1.54,6.03,4.07,6.17,5.47,10.94,12.91,9.82,22.45,6.74-.42,11.23,3.51,14.45,6.45,1.12.98,1.68,1.82,2.53,2.81,3.65,3.79,3.93,4.07,8.14,7.16,1.4-.98,3.09-3.93,3.65-6.31,1.4-5.33-.98-10.8-5.05-14.03-2.67-2.1-4.35-1.96-7.44-2.39,7.02-4.21,17.12,4.91,16.14,15.86-.28,3.93-1.4,5.61-2.81,8.56,3.79,2.1,11.93-.98,14.73-5.19,3.23-4.91,1.12-11.37-1.54-15.72-1.68-2.67-3.65-5.33-5.61-7.44l-11.08-12.07c-4.07-4.07-8.28-9.54-10.8-15.15-6.17-13.89,4.07-24.56,15.01-22.03,6.45,1.54,9.4,8.14,10.66,8.7,2.67,1.12-.7-3.79-.98-4.63-1.4-3.79,0-7.16,3.79-8.7,3.23-1.26,1.68,0,4.07-2.67,1.26-1.4,2.95-1.4,5.05-1.82,1.4-.28,1.96,0,3.23.14,1.12.14,1.96-.42,2.95-.28,1.4.14.84.84,2.53.28,1.26-.56,3.79-1.26,4.77-2.1.7-.56.84-1.12,1.54-1.68-.28.84-.84,1.4-1.12,2.1.56.42,1.68.56,2.53.7-2.25.42-2.1-.42-4.77.7-1.26.56-2.67.84-3.65,1.54-.42,1.26-.28,1.54-1.4,2.25-1.54.98-2.25,2.67-3.79,3.51-.42.28-.84.28-1.12.56-.56.28-.56.42-.98.84-2.25,1.82-3.79.14-6.03.84-1.96.56-2.53,2.53-1.4,4.35,1.96,3.09,3.93,7.02.84,10.24-3.37,3.51-7.58,1.12-9.82-1.26-1.68-1.96-4.63-5.61-7.86-6.59-4.07-1.12-7.72,2.53-7.72,6.31,0,6.31,6.31,14.03,10.38,18.1.56.56,1.12,1.26,1.68,1.96s1.26,1.12,1.82,1.82c2.39,2.53,6.74,6.74,8.7,9.26l3.23,3.79c3.79,4.49,7.86,10.24,8.56,16.42,1.12,9.4-4.49,16-9.54,19.08-5.05,3.09-11.65,3.79-17.68,2.25-1.82-.42-3.79-1.54-5.33-1.82-1.12.56-1.82,1.26-3.23,1.96-1.12.56-2.53,1.12-3.65,1.54-6.74,2.25-14.87,2.67-21.33-.7-1.12-.56-2.1-1.4-3.09-1.96-2.67,7.16-12.49,8.98-19.36,10.8-3.65.98-5.47,2.1-7.44,2.67.28,1.4.84,2.67,1.54,3.79,2.1,3.37,4.63,5.47,9.12,6.17,5.75.98,10.8-1.26,13.47-6.17.56,7.02-8.7,9.82-14.31,9.12-6.45-.84-10.38-4.77-13.61-9.82-2.95,2.81-5.33,8.98-3.37,14.45,5.47,14.45,33.25,3.93,44.48,1.96,12.07-2.1,23.85-1.4,28.2,8.14,2.25,5.05.7,11.93-2.39,14.87-6.31,5.89-12.49,3.65-13.47,5.61.56,1.4,2.67.56,4.35.7,4.91.42,7.02,4.07,5.75,9.4-.42,1.82.84,2.53.84,4.35,0,1.26-.84,2.81-1.26,4.21-.56,1.68-1.4,1.96-2.1,3.23-1.12,2.39,0,1.54-2.25,3.09-.14,1.54-.42,2.81-.56,4.35.28,1.68.84,1.68,1.12,3.51Z"/>
  <path class="cls-1" d="M883.89,480.25c8.14-3.37,13.89-11.93,13.89-20.77v-5.75c0-12.49-10.24-22.73-22.73-22.73h-41.11c-.42-.14-.7,0-.7.56v90.64c0,.56.14.7.7.7h9.68v-40.69h18.38c.7,0,2.67,3.65,3.23,4.77l11.79,20.49c1.12,1.68,1.96,3.37,2.95,5.19l6.03,10.24h11.79c-3.79-7.16-9.26-15.72-13.05-22.73-1.12-2.25-10.1-17.12-10.24-17.96,1.4,0,3.65-.28,5.05-.56,1.68-.28,3.09-.84,4.35-1.4ZM873.37,471.83h-29.75v-30.73h31.01c7.3,0,12.91,5.61,12.91,12.49,0,6.17.7,10.52-4.07,15.01-2.53,2.1-5.47,3.23-10.1,3.23Z"/>
  <path class="cls-1" d="M371.03,500.04c-3.09-5.47-7.58-12.63-10.38-17.96,3.23,0,7.02-.7,9.4-1.82,1.4-.56,2.53-1.12,3.65-1.96,3.09-2.1,6.31-5.47,8-8.7,3.09-5.89,2.39-10.94,2.39-17.54,0-4.21-1.96-8.84-4.35-11.93-4.21-5.75-10.66-9.26-18.1-9.26h-41.81v91.91h10.24v-40.69h18.38c.7,0,.98.98,1.68,2.25.56.98.98,1.54,1.54,2.53,2.25,4.07,5.19,8.7,7.3,12.77l13.33,23.15h11.79c-.28-1.26-4.77-8.42-5.75-10.1l-7.3-12.63ZM330.06,471.83v-30.73h31.29c6.74,0,12.49,5.61,12.49,11.51s.84,12.07-4.21,16c-1.4,1.12-2.25,1.68-4.07,2.39-1.68.56-3.65.84-5.75.84h-29.75Z"/>
  <path class="cls-1" d="M576.59,441.11h47.15l-17.68,30.59c-5.89,9.96-11.79,20.91-17.68,30.59-.98,1.68-1.96,3.23-2.95,5.05s-1.96,3.37-2.95,5.19l-5.89,10.38h58.93c.7-1.26,5.61-9.26,5.75-10.24h-47.01l2.95-5.05c.98-1.82,1.96-3.37,2.95-5.19,4.77-8,9.82-17.4,14.59-25.4l17.68-30.59c.84-1.4,8.42-14.31,8.7-15.43h-64.55v10.1Z"/>
  <path class="cls-1" d="M443.01,522.77h11.08c.28-1.12,1.12-2.81,1.54-4.07l4.91-12.07c2.1-5.33,4.35-10.66,6.59-16.14l12.91-32.27c.84.98,22.03,54.16,24.56,60.34.56,1.26,1.26,2.95,1.54,4.21h11.08l-36.06-89.1c-.14-.42-.28-.84-.56-1.4q-.14-.42-.28-.7t-.42-.7l-27.78,68.9c-1.54,3.79-3.09,7.58-4.63,11.37-.7,1.82-1.54,3.93-2.39,5.75l-2.1,5.89Z"/>
  <path class="cls-1" d="M704.98,441.11h58.79c.28-1.54,5.47-8.84,5.61-10.24h-64.26l-.14,10.24Z"/>
  <path class="cls-1" d="M704.98,522.77h58.79c.14-.84,4.91-8.7,5.75-10.24h-64.55v10.24Z"/>
  <path class="cls-1" d="M704.98,481.38c0,.56.14.7.7.7h57.39c.7,0,1.12-1.26,1.82-2.25l3.09-5.33c.56-.98.98-1.82,1.54-2.67h-64.55v9.54Z"/>
  <path class="cls-2" d="M159.86,481.24c.42-1.68,2.25-3.51,3.09-4.63.7-.84.56-.56,1.26-1.26,1.4-1.26,2.95-2.39,4.91-2.81.98-.14,1.26.14,1.82.56,0,2.95-2.1,4.07-4.49,5.19-1.12.7-5.33,2.81-6.59,2.95ZM154.24,486.85c2.95-.84,10.94-3.93,13.61-5.47,2.25-1.26,3.93-2.39,5.33-4.07,5.05-6.17-3.51-12.49-12.49-2.95-2.67,2.81-5.75,7.16-6.45,12.49ZM175.71,456.82h-.7c-2.67,0-1.82-8.7-1.68-10.24.14-1.12.42-2.39.42-3.65l.14.28c.14.28.14.14.28.42,3.23,4.63,3.93,13.19,1.54,13.19ZM171.78,435.63c-.7,6.03-4.07,17.12-.28,22.59,1.26,1.82,3.65,2.81,6.03,1.4,5.05-3.23,2.39-13.89-1.4-19.5-.98-1.26-3.37-4.35-4.35-4.49ZM187.08,469.59c0-3.93,7.3.56,8,1.12l5.05,3.79c-3.23,0-5.47-.28-7.86-1.12-1.12-.28-5.19-2.1-5.19-3.79ZM207.56,476.61l-4.91-4.21c-16.84-14.59-21.89-4.49-16.84.7,5.75,5.89,14.45,5.19,21.75,3.51Z"/>
  <path class="cls-1" d="M154.24,486.85c.7-5.33,3.79-9.68,6.45-12.49,8.98-9.54,17.54-3.09,12.49,2.95-1.4,1.68-3.09,2.95-5.33,4.07-2.67,1.54-10.66,4.63-13.61,5.47ZM207.56,476.61c-7.16,1.68-15.86,2.53-21.75-3.51-5.19-5.19,0-15.43,16.84-.7l4.91,4.21ZM171.78,435.63c.98.14,3.37,3.23,4.35,4.49,3.79,5.47,6.45,16.14,1.4,19.5-2.39,1.54-4.77.56-6.03-1.4-3.79-5.47-.42-16.56.28-22.59ZM206.86,575.53c.98-.42.7-.98,1.82-1.54l.98,1.96h.28c-.28-1.82-.84-1.82-.56-3.93.28-1.54.42-2.81.56-4.35,2.25-1.54,1.12-.84,2.25-3.09.7-1.4,1.54-1.54,2.1-3.23.42-1.26,1.26-2.95,1.26-4.21-.14-1.68-1.4-2.53-.84-4.35,1.26-5.33-.84-8.84-5.75-9.4-1.68-.14-3.93.56-4.35-.7.98-1.96,7.02.28,13.47-5.61,3.23-2.95,4.63-9.82,2.39-14.87-4.35-9.54-16.14-10.24-28.2-8.14-11.23,1.96-39.01,12.63-44.48-1.96-2.1-5.47.28-11.65,3.37-14.45,3.23,5.05,7.16,8.98,13.61,9.82,5.47.7,14.73-2.1,14.31-9.12-2.67,4.91-7.72,7.16-13.47,6.17-4.35-.7-6.88-2.81-9.12-6.17-.7-1.12-1.26-2.39-1.54-3.79,1.96-.56,3.79-1.82,7.44-2.67,6.88-1.68,16.7-3.65,19.36-10.8,1.12.42,1.96,1.26,3.09,1.96,6.45,3.23,14.59,2.95,21.33.7,1.26-.42,2.53-.98,3.65-1.54,1.4-.7,2.1-1.26,3.23-1.96,1.4.28,3.37,1.4,5.33,1.82,6.03,1.54,12.63.84,17.68-2.25s10.66-9.68,9.54-19.08c-.7-6.17-4.77-11.79-8.56-16.42l-3.23-3.79c-2.1-2.53-6.31-6.74-8.7-9.26-.56-.7-1.26-1.12-1.82-1.82s-1.12-1.4-1.68-1.96c-4.07-4.07-10.52-11.65-10.38-18.1,0-3.79,3.65-7.44,7.72-6.31,3.23.84,6.03,4.63,7.86,6.59,2.25,2.39,6.45,4.77,9.82,1.26,3.09-3.23,1.12-7.16-.84-10.24-1.26-1.82-.56-3.79,1.4-4.35,2.25-.7,3.79.98,6.03-.84.42-.28.42-.42.98-.84.42-.28.7-.28,1.12-.56,1.54-.84,2.25-2.53,3.79-3.51,1.12-.7.98-.84,1.4-2.25.98-.7,2.39-.98,3.65-1.54,2.53-.98,2.39-.28,4.77-.7-.84-.14-1.96-.28-2.53-.7.28-.84.84-1.26,1.12-2.1-.84.56-.98.98-1.54,1.68-.98.84-3.51,1.54-4.77,2.1-1.54.7-1.12-.14-2.53-.28-.98-.14-1.68.42-2.95.28s-1.82-.42-3.23-.14c-2.1.42-3.79.42-5.05,1.82-2.39,2.53-.7,1.26-4.07,2.67-3.79,1.54-5.19,4.91-3.79,8.7.28.84,3.65,5.61.98,4.63-1.26-.56-4.21-7.16-10.66-8.7-10.94-2.53-21.05,8.14-15.01,22.03,2.53,5.61,6.74,11.08,10.8,15.15l11.08,12.07c1.96,2.1,4.07,4.77,5.61,7.44,2.67,4.35,4.77,10.8,1.54,15.72-2.81,4.21-10.94,7.3-14.73,5.19,1.26-2.95,2.39-4.63,2.81-8.56.98-10.94-9.12-20.07-16.14-15.86,3.09.42,4.77.28,7.44,2.39,4.07,3.23,6.31,8.7,5.05,14.03-.56,2.39-2.25,5.33-3.65,6.31-4.21-3.23-4.49-3.37-8.14-7.16-.98-.98-1.54-1.82-2.53-2.81-3.23-2.95-7.72-6.88-14.45-6.45,1.12-9.4-3.65-16.84-9.82-22.45-2.81-2.53-3.65-2.53-6.03-4.07-1.4-.84-.56-5.89-3.93-11.65-1.82-3.23-4.21-5.61-7.16-7.58-7.3-4.77-16.28-4.07-22.73.84-9.82,7.3-12.77,27.92-17.82,41.67-2.81,5.61-8.14,17.54-15.58,13.89-4.07-1.96-4.35-5.33-2.81-10.38,1.12-3.51,3.23-8.98-.42-11.51-4.35-3.09-7.58-.42-9.54,2.67-.98,1.54-1.54,3.93-3.51,3.93-3.23.14-2.67-4.21-5.47-5.61l-2.39-1.26c-.98-.56-1.68-.56-2.95-.84-1.4-.28-1.82-.84-2.81-1.12-2.53-.56-.56,1.54-4.77-1.96-1.54-1.26-2.39-2.25-3.23-4.07l.7,2.67-2.81.14c3.65.7,4.07,1.54,6.88,3.79,1.4,1.12.14.98,1.12,2.53.42.7.98.98,1.4,1.96s.56,1.82,1.12,2.53c.56.84.98.84,1.68,1.96,1.26,2.1,2.67,1.68,4.77,2.39.98.28,1.4,1.12,2.1,1.54,1.26.98,2.95,2.1,5.19,1.82,3.09-.28,4.63-2.39,5.89-4.91.42-.84.7-1.68,1.68-1.82,1.12.98-.84,3.65-1.68,7.3-.7,3.09-.7,5.89.56,8.7,1.82,4.07,6.31,8,12.35,8.14,20.35.56,22.17-38.31,30.87-50.65,2.39-3.37,6.45-8.42,13.19-7.02,4.49.98,10.24,6.17,10.38,9.96-14.31,0-21.47,13.05-17.4,20.77.56.98,1.82,2.53,2.81,2.95-1.12-3.09-2.25-3.93-1.54-7.86.42-2.95,1.54-4.77,2.95-6.59,1.26-1.54,3.09-3.09,5.61-4.07,1.4-.56,7.3-1.54,8.28-.14,0,5.47-2.25,9.82-3.37,14.87-.84,3.79-1.26,8.28.14,11.93.42,1.26,1.26,2.25,1.54,3.23-4.77,1.26-8.7,6.03-10.94,10.24-2.67,5.05-4.21,10.66-3.79,17.26-5.19,2.81-9.82,9.82-10.94,15.86-1.54,8.98,2.67,15.86,7.16,19.36,10.94,8.84,31.15,1.4,44.2-1.54,6.17-1.4,17.96-3.65,22.73.7,2.53,2.25,3.23,6.88.28,9.4-4.35,3.51-17.68,2.25-15.29,11.08,2.1,7.72,13.89,1.26,12.35,7.72-.42,1.68-2.25,2.25-2.39,4.49-.14,1.12.14,1.82.14,2.95,0,2.39.84,2.95,1.12,5.75.14,1.26.56,1.4,1.26,2.1-.7,7.44-1.12,5.19-2.1,8h0Z"/>
</svg>