<?xml version="1.0" encoding="utf-8"?>
<!-- Generator: Adobe Illustrator 26.0.3, SVG Export Plug-In . SVG Version: 6.00 Build 0)  -->
<svg version="1.1" id="Layer_1" focusable="false" xmlns="http://www.w3.org/2000/svg" xmlns:xlink="http://www.w3.org/1999/xlink"
	 x="0px" y="0px" viewBox="0 0 806 145.26" style="enable-background:new 0 0 806 145.26;" xml:space="preserve">
<g>
	<path d="M89.47,115.84c3.22,2.01,6.45,4.03,9.67,5.64c34.66,15.31,85.84,24.58,95.51,21.36c27-8.87,57.23-65.69,66.5-91.88
		c0,0-28.21,11.28-56.82,24.58c-23.78,11.28-49.97,24.18-49.97,24.18l66.5-20.15c0,0-17.73,41.91-41.11,46.75
		c-23.37,4.84-64.48-11.69-64.48-11.69c3.22-2.82,46.75-34.66,148.3-76.17c4.43-3.22,7.25-8.46,8.06-13.7
		c-23.37,2.42-45.94,9.27-67.3,19.34C161.6,64.26,89.47,115.84,89.47,115.84z M15.31,95.29c7.25,9.27,37.08,16.93,41.11,17.73
		C37.88,100.12,0,64.66,0,64.66C4.03,75.54,9.27,85.62,15.31,95.29z"/>
	<path d="M103.17,90.85c19.75-14.51,89.87-73.75,157.57-89.87c0,0-35.46-5.64-85.84,10.08c-18.14,5.64-44.33,31.03-93.09,78.18
		c-6.45,3.63-30.23-10.07-43.93-16.52c0,0,22.57,35.87,30.63,46.35c12.09,16.52,34.25,26.2,34.25,26.2
		c-2.01-2.01-17.33-18.13-21.76-27.4C78.18,113.42,81.41,106.97,103.17,90.85z M515.44,25.97h-12.09v35.87h-22.57V25.97h-12.09
		v41.91h46.75V25.97z M616.19,61.44h-30.22V25.97h-12.49v41.91h37.08L616.19,61.44z M621.43,25.97h12.49v41.91h-12.49V25.97z
		 M772.55,32.02h27.81l5.64-6.04h-45.94v41.91h12.49V47.33h27l4.84-6.45h-31.84V32.02z M429.6,54.18h33.45V29.2
		c0-1.61-1.21-3.22-2.82-3.22h-43.12v41.51h12.49C429.6,67.48,429.6,54.18,429.6,54.18z M429.6,32.02h20.15c0.4,0,1.21,0,1.21,2.02
		v14.1H429.6V32.02z M567.02,42.09h-3.63V30c0-2.42-1.21-4.03-3.22-4.03h-39.09v41.91h45.54L567.02,42.09L567.02,42.09z
		 M554.53,61.44h-20.96v-13.3h20.96V61.44z M554.53,42.09h-20.96V32.02h19.75c1.21,0,1.21,1.61,1.21,2.02V42.09z M405.02,32.02
		l6.45-6.04h-46.75v41.51h46.75l-6.45-6.04h-27.81V50.15h31.43V43.3h-31.43V32.02H405.02z M652.86,32.02h28.21l6.04-6.04h-46.75
		v41.51h40.7l6.04-6.04h-34.26V32.02z M620.62,97.3l5.24-6.05h-47.55v22.57h34.26v12.49h-35.87l7.66,6.45h41.11v-25.39H590.8V97.3
		H620.62z M405.42,91.26h-44.33v41.51h12.49v-17.73h22.17v17.73h12.49V94.88C408.64,93.27,407.43,91.66,405.42,91.26z
		 M395.75,108.99h-21.76V97.3h20.55c1.21,0,1.21,1.21,1.21,2.01V108.99z M512.62,97.3l6.45-6.05h-47.15v41.51h47.15l-6.45-6.04
		h-28.21v-11.28h31.84v-6.85h-31.84V97.3H512.62z M348.19,97.71l6.45-6.45h-49.17v41.51h47.55V110.2h-12.49v16.52h-22.17V97.71
		L348.19,97.71z M415.09,91.26v41.91h12.9v-24.18l12.09,8.46l12.49-8.46v24.18h12.49V91.26l-24.99,16.52L415.09,91.26z
		 M571.45,115.03V94.88c0-2.01-1.21-4.03-3.22-4.03h-45.14v41.91h12.49V97.3h21.76c1.21,0,1.21,1.21,1.21,2.01v8.06h-20.55
		l22.57,25.39h14.91l-15.72-17.73H571.45z M357.46,55.39V30c0-2.01,0-4.03-2.42-4.03h-49.57v29.02l12.9,14.1V32.02h24.18
		c1.61,0,2.02,0.4,2.02,2.02v13.3h-21.36l34.26,35.87V69.09l-12.9-14.1h12.9V55.39z M749.98,25.97h-42.32V56.2l10.08,11.69h35.06
		V29.2C752.8,27.58,751.6,25.97,749.98,25.97z M740.31,61.44h-13.3l-6.85-8.06V32.02h20.15V61.44z"/>
</g>
</svg>
