<?xml version="1.0" encoding="UTF-8"?>
<!DOCTYPE svg PUBLIC "-//W3C//DTD SVG 1.1//EN" "http://www.w3.org/Graphics/SVG/1.1/DTD/svg11.dtd">
<!-- Creator: CorelDRAW 2019 (64-Bit) -->
<svg xmlns="http://www.w3.org/2000/svg" xml:space="preserve" width="174.249mm" height="89.9221mm" version="1.1" style="shape-rendering:geometricPrecision; text-rendering:geometricPrecision; image-rendering:optimizeQuality; fill-rule:evenodd; clip-rule:evenodd"
viewBox="0 0 173.3679 89.4673"
 xmlns:xlink="http://www.w3.org/1999/xlink"
 xmlns:xodm="http://www.corel.com/coreldraw/odm/2003">
 <defs>
  <style type="text/css">
   <![CDATA[
    .fil2 {fill:#FEFEFE}
    .fil1 {fill:#BC2211}
    .fil6 {fill:#F0B7B3}
    .fil10 {fill:#ED9C96}
    .fil9 {fill:#E6877E}
    .fil4 {fill:#E1736A}
    .fil7 {fill:#C0F4B9}
    .fil3 {fill:#8D8C8E}
    .fil8 {fill:#ABEEA0}
    .fil5 {fill:#8FE282}
    .fil0 {fill:#44AF2A}
   ]]>
  </style>
 </defs>
 <g id="Layer_x0020_1">
  <metadata id="CorelCorpID_0Corel-Layer"/>
  <g id="_1552274960">
   <path class="fil0" d="M142.3525 38.5704c0,-2.197 0.3027,-3.3901 1.9175,-4.7428 0.3625,-0.3036 0.78,-0.5342 1.2292,-0.759 3.0576,-1.5301 7.2123,-1.1789 10.5682,-0.9563 0.9328,0.0619 1.8436,0.324 2.6874,0.3942l0.0089 10.8443c0.0062,0.5783 0.2851,0.7348 -1.4007,0.7864 -1.3985,0.0428 -2.6564,0.1989 -4.175,0.1989 -2.9451,0 -5.8577,0.1525 -8.3575,-1.2851 -0.7654,-0.4402 -1.3512,-0.9379 -1.7809,-1.6984 -0.3699,-0.6549 -0.697,-1.7529 -0.697,-2.7822zm-10.1397 -36.0853l0 0c0,0.9854 1.8887,11.473 1.8887,12.3266 0.281,-0.0655 0.5335,-0.2002 0.8059,-0.2874 0.3217,-0.103 0.584,-0.1612 0.9212,-0.2717 2.0407,-0.6686 7.6293,-1.5454 9.9024,-1.5297 0.8841,0.0062 1.378,-0.1031 2.1869,-0.0994 2.6493,0.0118 5.4148,0.3028 7.6149,1.6328 1.2994,0.7857 2.3569,2.4749 2.8375,4.0216 0.4071,1.3097 0.3844,2.5622 0.3844,4.2878 -7.5384,-1.7563 -18.3624,-1.1569 -24.7722,2.8633 -1.9142,1.2006 -3.492,2.775 -4.6482,4.6961 -2.0136,3.3462 -2.0921,5.5811 -2.0921,9.5387 0,1.5461 0.272,3.0815 0.5763,4.2949 1.6578,6.6148 7.0409,10.0881 13.3986,11.3541 1.996,0.3975 4.6247,0.766 6.7026,0.7528 1.1648,-0.0074 2.5113,0.1473 3.979,0.1033l7.5525 -0.4002c2.7131,-0.1166 11.2509,-1.6661 13.9165,-2.2871l0 -32.9041c0.0034,-2.7248 -0.5188,-5.7384 -1.2273,-8.2164 -0.1705,-0.5959 -0.3495,-1.1715 -0.5948,-1.6917 -0.8413,-1.7854 -1.0044,-2.1293 -2.1677,-3.6973 -0.5903,-0.7958 -1.5895,-1.7897 -2.3568,-2.4147 -3.9878,-3.2485 -10.1338,-4.5573 -15.5232,-4.5573 -5.0989,0 -6.3139,0.102 -11.4269,0.8004 -2.0551,0.2808 -4.8728,0.8584 -6.9071,1.4431 -0.3466,0.0995 -0.6277,0.2148 -0.9512,0.2417z"/>
   <path class="fil0" d="M22.0686 54.9728l12.2271 0c0.5344,0 2.998,-5.648 3.1824,-6.0626l1.4909 -3.1813c0.2492,-0.5012 0.4618,-1.0677 0.6964,-1.5899 0.2466,-0.5489 0.487,-1.0494 0.737,-1.6489l2.0786 -4.8798c1.3927,-3.1061 4.8592,-12.2134 5.8697,-15.1055 0.8237,-2.3576 1.6131,-4.5474 2.4094,-6.9351l4.5108 -14.1778 -15.8059 0 -0.5752 2.3076c-0.1987,0.7739 -0.4097,1.5001 -0.6294,2.2534 -0.2135,0.732 -0.4193,1.4574 -0.6412,2.2418 -1.8021,6.3697 -4.1201,13.5275 -6.2189,19.8259l-2.9697 8.6612c-0.0746,-0.1075 -0.0193,-0.0129 -0.1079,-0.1902 -0.0601,-0.1203 -0.0617,-0.121 -0.1229,-0.2748 -0.0786,-0.1972 -0.1105,-0.3216 -0.182,-0.514 -1.9075,-5.1396 -3.0739,-8.9628 -4.7699,-14.0182l-5.9511 -20.2927 -16.2036 0c0.1398,0.6 0.3473,1.1508 0.5181,1.7683l2.8001 8.8308c0.8066,2.405 2.0573,6.4614 2.9445,8.686 1.0576,2.6514 2.0095,5.7027 3.1668,8.5635 1.8597,4.5968 4.0439,10.4598 6.1114,14.7643 0.9606,1.9997 1.9077,4.3125 2.949,6.3954l1.5244 3.1479c0.171,0.3422 0.585,1.4249 0.961,1.4249z"/>
   <path class="fil0" d="M95.4318 54.9728l12.7242 0 3.0489 -6.196c0.5054,-1.0908 0.9459,-2.0716 1.4257,-3.147 2.0533,-4.602 3.6425,-8.3185 5.5372,-13.0524l3.8203 -10.0968c0.7033,-1.882 6.8161,-19.794 6.8449,-21.0889l-15.7066 0c-0.7888,3.3856 -2.7188,9.8333 -3.8651,13.4318 -0.2418,0.7586 -0.4109,1.4434 -0.6692,2.2136l-4.9963 15.1837c-0.1702,0.513 -1.4718,3.9778 -1.5037,4.3613 -0.2594,-0.19 -0.3332,-0.5721 -0.46,-0.9319l-1.1725 -3.2013c-0.2808,-0.7248 -0.5068,-1.4379 -0.7406,-2.1422 -1.4773,-4.4489 -3.6545,-10.9006 -4.9258,-15.3536l-3.9343 -13.5616 -16.1039 0c0.0314,0.38 0.3777,1.3856 0.5099,1.7764l1.6383 5.3203c0.7887,2.3716 1.5022,4.6018 2.2876,6.9574 0.3996,1.1982 0.7761,2.2249 1.1686,3.4043 2.6607,7.9942 5.9098,15.6961 9.1499,23.4559 0.2372,0.5683 0.4516,1.0031 0.6957,1.5906 0.2221,0.5343 0.4718,1.0352 0.7201,1.5664l3.7446 7.8861c0.217,0.4339 0.664,1.2025 0.7622,1.6236z"/>
   <polygon class="fil0" points="58.1538,54.9728 73.3633,54.9728 73.3633,1.3917 58.1538,1.3917 "/>
   <path class="fil1" d="M51.2039 75.5798l-0.0027 -0.2984c-0.0205,-0.1815 -0.0713,-0.1493 0.0885,-0.1493l0.2022 -0.468 0.1131 -0.1009c0.1687,-0.2909 0.2016,-0.3204 0.488,-0.4948l0.101 -0.1122 0.4934 -0.1938 0.147 -0.0852 0.2726 -0.0086c0.0475,-0.0373 -0.0355,-0.1065 0.2774,-0.123 0.3381,-0.0177 0.2959,0.0832 0.336,0.1083l0.2322 0.0117 0.1599 0.0835 0.157 0.0133 0.1151 0.095 0.0875 0.0017 0.1026 0.1034 0.199 0.0871 0.0903 0.113 0.1023 0.1055 0.1055 0.0907 0.1153 0.0961 0.2881 0.5787 0.091 0.1341 0.0042 0.168 0.1089 0.1992 -0.0083 0.7012 -0.1188 0.1851 0.0116 0.2032c0.0065,0.1582 0.0502,0.1277 -0.0918,0.1277l0.0039 0.1 -0.0976 0.1079 0.0001 0.0867c0.0056,0.1461 0.0387,0.1063 -0.1131,0.1063 -0.2261,0.3246 -0.2515,0.3618 -0.5909,0.5739l-0.1028 0.1106 -0.0889 0.0006 -0.1085 0.0987 -0.0798 0.0034c0,0.1531 0.0335,0.1092 -0.1327,0.0936l-0.2537 0.0025 -0.2237 0.1016 -0.5912 -0.0004 -0.2016 -0.1107 -0.2009 0.0092 -0.1289 -0.09 -0.2747 -0.101 -0.1052 -0.1056 -0.1936 -0.0888 -0.1028 -0.1074 -0.0972 -0.0999 -0.0983 -0.0991c-0.1412,0.0067 -0.1058,0.0407 -0.109,-0.0993l-0.086 -0.1981 -0.1041 -0.1029 0.0064 -0.1036 -0.0963 -0.1169 -0.0115 -0.1538 -0.0869 -0.1648 -0.0113 -0.2317c-0.0369,-0.0624 -0.1077,-0.0147 -0.1058,-0.3227 0.0019,-0.2881 0.0765,-0.2239 0.1186,-0.2705zm-9.6514 4.2449l0 0c0,2.3257 1.0685,4.9096 2.6094,6.4369 0.9105,0.9024 1.4033,1.3336 2.626,1.9466 4.2565,2.1338 9.0864,0.7366 11.836,-2.9429 2.2443,-3.0033 2.2791,-7.6502 0.1271,-10.71 -1.4502,-2.0621 -4.1187,-4.075 -7.1581,-4.075 -2.0784,0 -2.8692,-0.0093 -4.805,0.9608 -3.1356,1.5714 -5.2354,4.8277 -5.2354,8.3836z"/>
   <path class="fil0" d="M9.5504 75.4901l0.0768 -0.1841 0.3035 -0.754 0.1053 -0.1026 0.1113 -0.0964 0.1901 -0.181 0.0981 -0.1251 0.1866 -0.0928 0.1024 -0.1016 0.111 0.0107 0.1191 -0.0978 0.5358 -0.1118c0.0582,-0.0322 0.0221,-0.1087 0.3368,-0.1049 0.2862,0.0035 0.2207,0.0741 0.2721,0.1215l0.2947 -0.0007c0.1757,-0.0171 0.1445,-0.0665 0.1445,0.0877l0.4693 0.2048 0.1004 0.1147c0.2953,0.1716 0.3003,0.2 0.4994,0.4764 0.1471,0 0.1134,-0.0387 0.1144,0.1022l0.0999 0.2863 0.0937 0.1207 0.015 0.1505 0.0813 0.164 -0.0066 1.0265 -0.0848 0.1559 -0.0092 0.1655c0.0074,0.1516 0.047,0.1191 -0.0954,0.1191l-0.2728 0.5074c-0.0072,0.1451 0.0294,0.1095 -0.1198,0.0946l-0.1027 0.0916 -0.0965 0.1118 -0.1952 0.0893 -0.1026 0.1054 -0.2756 0.1017c0,0.143 0.0304,0.099 -0.1287,0.0907l-0.2017 -0.0081 -0.1994 0.111 -1.0754 -0.1032c-0.1673,0.0166 -0.1335,0.0605 -0.1335,-0.0943l-0.0634 -0.008 -0.1129 -0.1007 -0.1048 0.0113c-0.1456,0.0061 -0.1061,0.0392 -0.1061,-0.1117 -0.3255,-0.2198 -0.3807,-0.2457 -0.5798,-0.5901l-0.109 -0.1005 -0.0957 -0.2885 -0.0936 -0.1284 -0.0123 -0.1508 -0.0805 -0.1721 -0.0035 -0.8123zm-9.5504 3.937l0 0c0,2.7875 0.7505,5.0661 2.6571,6.9854 1.244,1.2521 3.6511,2.7567 6.0906,2.7567l1.193 0c3.2699,0 6.4208,-2.3913 7.7873,-5.1357 2.3369,-4.6921 0.4186,-10.294 -4.2414,-12.6256 -3.6247,-1.8138 -8.0159,-0.9654 -10.8282,1.8306 -1.2926,1.2851 -2.6585,3.6448 -2.6585,6.1886z"/>
   <path class="fil2" d="M31.9426 73.7501c2.9496,-0.9331 4.089,3.4334 1.3455,4.2715 -2.8203,0.8614 -4.2575,-3.3505 -1.3455,-4.2715zm-10.8396 6.4722l0 0c0.2401,4.8808 4.2682,8.8078 9.4189,8.6516 4.8306,-0.1466 8.9124,-4.3323 8.682,-9.4481 -0.2216,-4.9178 -4.3184,-8.8375 -9.485,-8.6495 -4.7835,0.174 -8.865,4.3768 -8.6159,9.446z"/>
   <path class="fil1" d="M129.7276 86.4851l0 -12.1279c0.3547,-0.0947 0.5027,-0.2904 0.8275,-0.4647 0.324,-0.1738 0.6047,-0.3203 0.9479,-0.4438 2.4644,-0.8874 5.7044,-0.7634 7.2545,1.6208 1.8787,2.8895 3.2511,14.2768 -9.0299,11.4157zm-2.187 1.5905l0 0 2.6571 0.6234c2.1074,0.4033 5.3185,0.4546 7.2837,-0.4246 1.0407,-0.4655 1.7399,-0.9944 2.5115,-1.7629 1.7269,-1.7199 2.0685,-3.828 2.3456,-6.2049 0.1128,-0.9664 -0.2131,-2.8073 -0.4612,-3.7843 -1.4001,-5.5143 -7.8172,-7.1539 -12.1497,-4.2527l0 -9.6426c-0.4616,0.0103 -0.9738,0.1602 -1.4517,0.2383 -0.8508,0.1391 -0.7553,-0.0202 -0.7387,0.9512l0.0035 10.4413c0,4.606 0,9.2119 0,13.8178z"/>
   <path class="fil1" d="M88.4732 72.8661c2.6194,0 4.0286,0.9371 4.7316,3.4199 0.1534,0.5419 0.3382,1.6271 0.3382,2.2464l-9.8413 0c0,-2.7267 2.2161,-5.6663 4.7714,-5.6663zm1.2923 16.1041l0 0c2.8172,0 3.4046,-0.6756 4.7715,-0.994 0,-0.527 -0.1497,-0.9474 -0.2509,-1.4442 -0.1194,-0.5851 0.1487,-0.6437 -0.9119,-0.2163 -2.3079,0.9303 -6.6658,0.9086 -8.2834,-1.2199 -0.9468,-1.2457 -1.3199,-2.6477 -1.4885,-4.6746l12.1276 0c0.0452,-0.5429 0.0995,-0.2712 0.0995,-1.1929 0,-2.4366 -0.489,-4.3777 -1.5329,-5.8234 -2.8227,-3.909 -10.63,-3.7595 -12.627,3.2943 -0.4788,1.6918 -0.5021,3.9625 -0.198,5.654 0.7952,4.4213 3.8228,6.6172 8.294,6.6172z"/>
   <path class="fil1" d="M116.6057 72.8661c7.6266,0 7.1255,14.0167 0.4971,14.0167 -2.1312,0 -3.5556,-0.2872 -4.8527,-2.3047 -0.3795,-0.5899 -0.742,-1.4124 -0.9077,-2.174 -0.8914,-4.0993 0.3622,-9.5379 5.2633,-9.5379zm-7.8533 6.1634l0 0c0,2.0009 -0.0739,3.1445 0.7086,5.0572 2.5217,6.1648 10.295,6.2646 13.4501,1.6459 0.1647,-0.2409 0.2609,-0.4261 0.4129,-0.6806 1.8663,-3.124 1.5914,-8.3094 -0.7518,-11.3926 -1.015,-1.3356 -3.1228,-2.7814 -5.4695,-2.7814 -1.8778,0 -3.0489,0.1073 -4.6295,1.1361 -0.1921,0.1251 -0.3803,0.2856 -0.5686,0.4256 -1.8521,1.376 -3.1523,4.2601 -3.1523,6.5897z"/>
   <path class="fil1" d="M67.9951 83.5029c0,-3.3139 3.3043,-3.3799 5.6663,-3.3799 0.4569,0 2.5847,0.131 2.5847,0.6959l0 5.8651c-0.4513,0 -0.8814,0.0757 -1.3474,0.1437l-2.7393 0.0739c-0.5891,-0.0562 -0.8546,-0.0137 -1.3752,-0.1238 -1.6971,-0.3585 -2.7891,-1.2258 -2.7891,-3.2749zm-0.3975 -11.929l0 0c0.0501,0.6046 0.2841,1.3542 0.2981,1.9881 1.4402,-0.6909 3.1565,-0.6959 4.6723,-0.6959 1.4354,0 2.5043,0.6935 3.0544,1.6179 0.6651,1.1174 0.6237,2.4266 0.6237,4.1478 -0.5289,-0.1233 -0.8941,-0.2402 -1.5447,-0.344 -3.72,-0.5934 -8.9925,0.4227 -8.9925,5.1156 0,6.2943 6.5869,5.9112 10.9769,5.1118 0.5214,-0.095 1.8468,-0.1399 1.8468,-0.6385l0 -9.4438c0,-3.0698 -0.3811,-5.5848 -2.9469,-6.8947 -1.8926,-0.9662 -5.0364,-0.7904 -7.0963,-0.2656 -0.3704,0.0942 -0.5641,0.2249 -0.8917,0.3012z"/>
   <path class="fil1" d="M145.1358 81.9123c0,3.6547 2.0294,6.9585 6.1635,6.9585 2.5082,0 3.5444,0.0037 5.9853,-0.5756 0.4398,-0.1044 0.9411,-0.2833 1.3708,-0.3191l0 -16.7006 -2.2864 0 0 14.9112c0,0.3544 -0.3714,0.3325 -0.6995,0.3939 -0.3255,0.0609 -0.661,0.1108 -1.0304,0.1627 -2.3617,0.3314 -4.9861,0.3124 -6.3251,-1.5476 -0.7382,-1.0254 -0.9911,-3.0795 -0.9911,-4.874l0 -9.0461 -2.1871 0 0 10.6367z"/>
   <path class="fil1" d="M161.3394 75.4508c0,3.4622 2.9729,4.2903 5.6635,5.4702 1.4122,0.6194 3.482,1.1999 3.482,3.2777 0,3.5016 -5.3766,2.9952 -7.8417,2.1755 -0.3488,-0.1159 -0.6766,-0.3095 -1.0055,-0.3862 -0.1307,0.5606 -0.4879,1.6772 -0.4972,2.0876 0.8969,0.0746 1.2428,0.8947 5.1692,0.8947 7.6206,0 7.3049,-6.0474 5.1467,-8.0294 -1.517,-1.3932 -4.1308,-2.0516 -5.9099,-2.9377 -0.3406,-0.1696 -1.0687,-0.6376 -1.298,-0.8888 -0.8952,-0.9801 -0.8947,-2.8041 0.3874,-3.6356 1.4812,-0.9608 4.0273,-0.7727 5.738,-0.2037 0.3488,0.116 0.6768,0.3096 1.0055,0.3862 0.1066,-0.222 0.4898,-1.6636 0.4971,-1.9881 -1.6313,-0.7827 -3.3127,-0.7953 -5.1692,-0.7953 -1.5424,0 -2.827,0.5425 -3.7102,1.26 -0.9962,0.8092 -1.6578,1.9023 -1.6578,3.3128z"/>
   <path class="fil1" d="M98.9109 72.2697l0 16.303c2.7456,0 2.2871,0.3735 2.2865,-1.5905l0 -13.619c0.6547,-0.0544 1.1809,-0.3976 2.3858,-0.3976 1.2052,0 3.1108,-0.1131 4.1752,0.3976 0.1216,-0.5222 0.3977,-1.4133 0.3977,-1.9882 -0.5378,-0.1253 -0.9157,-0.244 -1.5445,-0.3443 -1.6269,-0.2596 -3.5607,-0.1507 -5.0752,0.1862l-2.0619 0.622c-0.3047,0.1123 -0.5634,0.1203 -0.5634,0.4307z"/>
   <path class="fil3" d="M21.103 80.2223c-0.2491,-5.0692 3.8324,-9.272 8.6159,-9.446 5.1666,-0.1879 9.2634,3.7317 9.485,8.6495 0.2304,5.1158 -3.8513,9.3015 -8.682,9.4481 -5.1507,0.1562 -9.1788,-3.7708 -9.4189,-8.6516zm9.6262 9.245l0 0c1.291,-0.0723 2.5649,-0.3929 3.7003,-0.9598 5.7643,-2.8784 7.3427,-10.727 2.6746,-15.3681 -0.8225,-0.8177 -1.6317,-1.515 -2.7403,-2.0313 -3.1842,-1.4827 -7.0563,-1.2173 -9.8827,0.8902l-1.2784 1.1074c-1.5733,1.8797 -2.7248,3.833 -2.7248,6.6197 0,1.6266 0.3238,2.797 0.8363,4.0347 0.447,1.0795 1.1751,1.9479 1.8762,2.796 0.4854,0.5872 1.9892,1.5833 2.7212,1.9512 1.1313,0.5686 2.401,0.8881 3.6887,0.9601l1.129 0z"/>
   <path class="fil3" d="M31.9426 73.7501c-2.912,0.921 -1.4748,5.1329 1.3455,4.2715 2.7436,-0.838 1.6041,-5.2045 -1.3455,-4.2715z"/>
   <path class="fil2" d="M52.6874 73.7624l-0.4934 0.1938 -0.101 0.1122c-0.2864,0.1744 -0.3193,0.2039 -0.488,0.4948l-0.1131 0.1009 -0.2022 0.468 -0.0885 0.1493 0.0027 0.2984 -0.0128 0.5932 0.0113 0.2317c0.1643,0 0.1068,-0.0312 0.0869,0.1648l0.0115 0.1538c0.1419,0 0.1032,-0.0329 0.0963,0.1169l-0.0064 0.1036 0.1041 0.1029 0.086 0.1981 0.109 0.0993c0.1369,-0.0067 0.1035,-0.0389 0.0983,0.0991l0.0972 0.0999c0.1398,-0.0033 0.1028,-0.0362 0.1028,0.1074l0.1936 0.0888c0.1406,-0.0005 0.1052,-0.0354 0.1052,0.1056l0.2747 0.101 0.1289 0.09 0.2009 -0.0092 0.2016 0.1107 0.5912 0.0004 0.2237 -0.1016 0.2537 -0.0025 0.1327 -0.0936 0.0798 -0.0034 0.1085 -0.0987 0.0889 -0.0006 0.1028 -0.1106c0.3394,-0.2121 0.3648,-0.2493 0.5909,-0.5739l0.1131 -0.1063 -0.0001 -0.0867 0.0976 -0.1079 -0.0039 -0.1 0.0918 -0.1277 -0.0116 -0.2032 0.1188 -0.1851 0.0083 -0.7012 -0.1089 -0.1992 -0.0042 -0.168c-0.1494,0 -0.1043,0.0318 -0.091,-0.1341l-0.2881 -0.5787 -0.1153 -0.0961 -0.1055 -0.0907c-0.1492,0.0107 -0.1142,0.0449 -0.1023,-0.1055l-0.0903 -0.113 -0.199 -0.0871 -0.1026 -0.1034 -0.0875 -0.0017 -0.1151 -0.095 -0.157 -0.0133c-0.1893,0.0162 -0.1599,0.0724 -0.1599,-0.0835l-0.2322 -0.0117 -0.6134 0.0146 -0.2726 0.0086 -0.147 0.0852z"/>
   <path class="fil2" d="M10.9545 73.7656c0,0.1465 0.034,0.1078 -0.1191,0.0978l-0.111 -0.0107 -0.1024 0.1016 -0.1866 0.0928 -0.0981 0.1251 -0.1901 0.181 -0.1113 0.0964 -0.1053 0.1026 -0.3035 0.754 -0.0768 0.1841 0.0035 0.8123 0.0805 0.1721 0.0123 0.1508c0.1471,0 0.1039,-0.0321 0.0936,0.1284l0.0957 0.2885 0.109 0.1005c0.1991,0.3444 0.2542,0.3703 0.5798,0.5901l0.1061 0.1117 0.1048 -0.0113c0.1481,-0.0091 0.1129,-0.045 0.1129,0.1007l0.0634 0.008 0.1335 0.0943 1.0754 0.1032 0.1994 -0.111 0.2017 0.0081 0.1287 -0.0907 0.2756 -0.1017 0.1026 -0.1054 0.1952 -0.0893 0.0965 -0.1118c-0.0061,-0.1393 -0.0382,-0.1067 0.1027,-0.0916l0.1198 -0.0946 0.2728 -0.5074 0.0954 -0.1191 0.0092 -0.1655 0.0848 -0.1559 0.0066 -1.0265 -0.0813 -0.164 -0.015 -0.1505c-0.1401,0 -0.0993,0.0313 -0.0937,-0.1207l-0.0999 -0.2863 -0.1144 -0.1022c-0.1991,-0.2764 -0.2041,-0.3048 -0.4994,-0.4764l-0.1004 -0.1147 -0.4693 -0.2048 -0.1445 -0.0877 -0.2947 0.0007 -0.6089 -0.0166 -0.5358 0.1118z"/>
   <path class="fil4" d="M53.7203 73.654c-0.0401,-0.0252 0.0021,-0.1261 -0.336,-0.1083 -0.3129,0.0165 -0.2299,0.0857 -0.2774,0.123l0.6134 -0.0146z"/>
   <path class="fil5" d="M12.0992 73.6703c-0.0514,-0.0474 0.0141,-0.118 -0.2721,-0.1215 -0.3147,-0.0039 -0.2786,0.0726 -0.3368,0.1049l0.6089 0.0166z"/>
   <path class="fil4" d="M51.1911 76.173l0.0128 -0.5932c-0.0421,0.0467 -0.1167,-0.0176 -0.1186,0.2705 -0.0019,0.3079 0.0689,0.2603 0.1058,0.3227z"/>
   <path class="fil6" d="M51.2893 76.5695c0.0199,-0.196 0.0774,-0.1648 -0.0869,-0.1648l0.0869 0.1648z"/>
   <path class="fil6" d="M54.1124 73.7492l-0.1599 -0.0835c0,0.1559 -0.0295,0.0997 0.1599,0.0835z"/>
   <path class="fil4" d="M51.2897 75.1321c-0.1598,0 -0.1089,-0.0321 -0.0885,0.1493l0.0885 -0.1493z"/>
   <path class="fil5" d="M12.5384 73.7573c0,-0.1541 0.0312,-0.1048 -0.1445,-0.0877l0.1445 0.0877z"/>
   <path class="fil5" d="M11.0455 78.0362l-0.1335 -0.0943c0,0.1548 -0.0338,0.1109 0.1335,0.0943z"/>
   <path class="fil4" d="M54.2943 77.9401l-0.1327 0.0936c0.1663,0.0156 0.1327,0.0595 0.1327,-0.0936z"/>
   <path class="fil6" d="M55.5662 75.1678l-0.091 -0.1341c-0.0132,0.166 -0.0584,0.1341 0.091,0.1341z"/>
   <path class="fil7" d="M9.7403 76.7538c0.0102,-0.1606 0.0534,-0.1284 -0.0936,-0.1284l0.0936 0.1284z"/>
   <path class="fil8" d="M12.6507 77.9457l-0.1287 0.0907c0.1592,0.0083 0.1287,0.0522 0.1287,-0.0907z"/>
   <path class="fil7" d="M10.9545 73.7656l-0.1191 0.0978c0.1531,0.0099 0.1191,0.0487 0.1191,-0.0978z"/>
   <path class="fil6" d="M54.9662 74.2682l-0.1023 -0.1055c-0.0119,0.1503 -0.047,0.1162 0.1023,0.1055z"/>
   <path class="fil9" d="M55.5639 76.6245l-0.0918 0.1277c0.1421,0 0.0983,0.0305 0.0918,-0.1277z"/>
   <path class="fil4" d="M55.3784 77.0467l-0.1131 0.1063c0.1518,0 0.1187,0.0398 0.1131,-0.1063z"/>
   <path class="fil5" d="M10.6309 77.8446l-0.1061 -0.1117c0,0.1509 -0.0395,0.1178 0.1061,0.1117z"/>
   <path class="fil5" d="M13.5431 77.3512l-0.1198 0.0946c0.1491,0.0149 0.1126,0.0504 0.1198,-0.0946z"/>
   <path class="fil7" d="M10.8486 77.934c0,-0.1457 0.0352,-0.1097 -0.1129,-0.1007l0.1129 0.1007z"/>
   <path class="fil5" d="M13.9113 76.7247l-0.0954 0.1191c0.1424,0 0.1028,0.0325 0.0954,-0.1191z"/>
   <path class="fil10" d="M51.3972 76.8402c0.0069,-0.1498 0.0456,-0.1169 -0.0963,-0.1169l0.0963 0.1169z"/>
   <path class="fil7" d="M13.9155 75.0624l-0.0937 -0.1207c-0.0056,0.152 -0.0464,0.1207 0.0937,0.1207z"/>
   <path class="fil5" d="M13.7219 74.6553c-0.001,-0.1409 0.0326,-0.1022 -0.1144,-0.1022l0.1144 0.1022z"/>
   <path class="fil9" d="M51.9881 77.6504c0,-0.1436 0.037,-0.1106 -0.1028,-0.1074l0.1028 0.1074z"/>
   <path class="fil6" d="M52.2869 77.8448c0,-0.141 0.0354,-0.1061 -0.1052,-0.1056l0.1052 0.1056z"/>
   <path class="fil4" d="M51.6899 77.3441l-0.109 -0.0993c0.0033,0.14 -0.0321,0.106 0.109,0.0993z"/>
   <path class="fil8" d="M13.4233 77.4458c-0.1409,-0.015 -0.1087,-0.0477 -0.1027,0.0916l0.1027 -0.0916z"/>
   <path class="fil10" d="M51.7882 77.4432c0.0052,-0.138 0.0386,-0.1058 -0.0983,-0.0991l0.0983 0.0991z"/>
   <polygon class="fil10" points="52.194,73.9562 52.093,74.0684 "/>
   <polygon class="fil7" points="14.0118,75.3769 13.9305,75.2129 "/>
   <polygon class="fil8" points="10.4355,74.047 10.3374,74.1721 "/>
   <polygon class="fil9" points="54.8639,74.1627 54.7736,74.0497 "/>
   <polygon class="fil10" points="51.8854,77.5431 51.7882,77.4432 "/>
   <polygon class="fil5" points="13.3206,77.5375 13.2241,77.6493 "/>
   <polygon class="fil6" points="55.0717,74.3589 54.9662,74.2682 "/>
   <polygon class="fil7" points="10.1472,74.3531 10.0359,74.4495 "/>
   <polygon class="fil7" points="13.0289,77.7387 12.9263,77.844 "/>
   <polygon class="fil10" points="55.187,74.455 55.0717,74.3589 "/>
   <polygon class="fil4" points="54.6744,77.7268 54.5716,77.8375 "/>
   <polygon class="fil5" points="10.0359,74.4495 9.9306,74.5521 "/>
   <polygon class="fil10" points="51.605,74.5632 51.4919,74.6641 "/>
   <polygon class="fil7" points="9.6272,75.306 9.5504,75.4901 "/>
   <polygon class="fil10" points="55.6793,75.5351 55.5703,75.3359 "/>
   <polygon class="fil8" points="9.6343,76.4745 9.5538,76.3024 "/>
   <polygon class="fil10" points="52.6906,78.0358 52.5616,77.9458 "/>
   <polygon class="fil10" points="55.5522,76.4214 55.671,76.2363 "/>
   <polygon class="fil8" points="14.0052,76.4033 13.9204,76.5593 "/>
   <polygon class="fil8" points="12.3203,78.0284 12.1209,78.1394 "/>
   <polygon class="fil10" points="53.093,78.1374 52.8915,78.0267 "/>
   <polygon class="fil10" points="54.4827,77.8381 54.3741,77.9368 "/>
   <polygon class="fil9" points="52.8343,73.6772 52.6874,73.7624 "/>
   <polygon class="fil10" points="54.3846,73.8576 54.2695,73.7626 "/>
   <polygon class="fil8" points="10.7244,73.8526 10.622,73.9542 "/>
   <polygon class="fil10" points="54.5746,73.9627 54.472,73.8593 "/>
   <polygon class="fil10" points="55.4759,76.8522 55.3783,76.96 "/>
   <polygon class="fil9" points="51.4949,77.0467 51.3908,76.9438 "/>
   <polygon class="fil8" points="9.945,77.1428 9.836,77.0423 "/>
   <polygon class="fil8" points="13.1081,74.0768 13.0077,73.9621 "/>
   <polygon class="fil6" points="53.9079,78.0362 53.6842,78.1378 "/>
  </g>
 </g>
</svg>
